<svg width="56" height="57" viewBox="0 0 56 57" fill="none" xmlns="http://www.w3.org/2000/svg">
<rect y="0.705322" width="56" height="56" rx="28" fill="white"/>
<path d="M26.7332 7.0371C37.5687 6.41078 47.2392 13.7764 49.5127 24.3864C50.1328 27.2988 50.1579 30.3115 49.5879 33.2364C48.1661 40.4517 43.2432 46.477 36.4601 49.3143C31.8377 51.2559 26.5515 51.5252 21.7476 50.0972C15.1649 48.1368 9.86615 43.2201 7.42347 36.8002C5.66975 32.1967 5.53196 27.0045 7.03514 22.3133C9.80352 13.6323 17.6389 7.55696 26.7332 7.0371Z" fill="white"/>
<path d="M8.22222 27.8138L21.0806 9.2948L27.5523 18.677L20.989 28.0624H8.35303C8.32433 28.0619 8.2963 28.0536 8.27186 28.0386C8.24743 28.0235 8.22749 28.0022 8.21412 27.9768C8.20075 27.9514 8.19445 27.9229 8.19588 27.8942C8.1973 27.8655 8.2064 27.8378 8.22222 27.8138Z" fill="#7E49FC"/>
<path d="M46.879 27.8138L34.0207 9.2948L27.5522 18.677L34.1122 28.0624H46.7482C46.7769 28.0619 46.8049 28.0536 46.8294 28.0386C46.8538 28.0235 46.8738 28.0022 46.8871 27.9768C46.9005 27.9514 46.9068 27.9229 46.9054 27.8942C46.9039 27.8655 46.8948 27.8378 46.879 27.8138Z" fill="#7E49FC"/>
<path d="M47.1019 30.4895C47.1353 33.0782 46.6544 35.6478 45.6869 38.0492C44.7194 40.4506 43.2846 42.6359 41.4658 44.4783C39.6471 46.3208 37.4805 47.7837 35.0918 48.7822C32.7032 49.7806 30.14 50.2948 27.5511 50.2948C24.9621 50.2948 22.399 49.7806 20.0103 48.7822C17.6217 47.7837 15.4551 46.3208 13.6363 44.4783C11.8175 42.6359 10.3828 40.4506 9.41527 38.0492C8.44777 35.6478 7.96681 33.0782 8.00029 30.4895H20.427C20.4067 31.437 20.5758 32.3791 20.9243 33.2604C21.2729 34.1417 21.7939 34.9446 22.4569 35.6219C23.1198 36.2992 23.9113 36.8373 24.7849 37.2047C25.6586 37.572 26.5968 37.7613 27.5445 37.7613C28.4923 37.7613 29.4305 37.572 30.3041 37.2047C31.1778 36.8373 31.9693 36.2992 32.6322 35.6219C33.2952 34.9446 33.8162 34.1417 34.1647 33.2604C34.5133 32.3791 34.6824 31.437 34.6621 30.4895H47.1019Z" fill="#0066FF"/>
</svg>
