<svg width="56" height="57" viewBox="0 0 56 57" fill="none" xmlns="http://www.w3.org/2000/svg">
<rect y="0.705322" width="56" height="56" rx="28" fill="white"/>
<path d="M30.8801 49V32.971C34.7096 33.3805 37.3082 35.1355 37.3082 35.1355L39.7505 32.386C35.7451 29.539 29.8055 29.422 29.8055 29.422L28.8286 18.658C29.4734 18.229 29.9032 17.5075 29.9032 16.669C29.9032 15.3625 28.8286 14.29 27.5195 14.29C26.2105 14.29 25.1359 15.3625 25.1359 16.669C25.1359 17.5075 25.5657 18.2485 26.2105 18.658L25.2336 29.422C25.2336 29.422 19.2939 29.5195 15.2886 32.386L17.7309 35.1355C17.7309 35.1355 20.3295 33.3805 24.159 32.971V49C9.19269 37.924 7.96178 21.8365 8.00086 16.4935C8.00086 15.382 8.66516 14.368 9.68115 13.9195C12.6705 12.5935 19.4893 10 27.5 10C35.5107 10 42.3295 12.5935 45.3189 13.9195C46.3348 14.368 46.9991 15.382 46.9991 16.4935C47.0382 21.8365 45.8073 37.924 30.8801 49Z" fill="#FFAF1D"/>
</svg>
