<svg width="56" height="57" viewBox="0 0 56 57" fill="none" xmlns="http://www.w3.org/2000/svg">
<rect y="0.705322" width="56" height="56" rx="28" fill="white"/>
<g clip-path="url(#clip0_374_4957)">
<path d="M23.8804 16.7175C23.4036 16.6493 23.3809 16.6266 23.6079 16.6039C24.0393 16.5358 25.0383 16.6266 25.7421 16.7856C27.3768 17.1715 28.8525 18.1705 30.4191 19.9187L30.8278 20.3955L31.4181 20.3047C33.9382 19.896 36.5264 20.2138 38.6833 21.2128C39.2736 21.4853 40.2044 22.0301 40.318 22.1664C40.3634 22.2118 40.4315 22.5069 40.4769 22.8021C40.6358 23.8692 40.5677 24.6638 40.2271 25.2768C40.0455 25.6174 40.0455 25.7082 40.159 26.0033C40.2498 26.2304 40.5223 26.3893 40.772 26.3893C41.3169 26.3893 41.8845 25.5265 42.157 24.3232L42.2705 23.8465L42.4748 24.0735C43.6327 25.3676 44.5409 27.1612 44.6771 28.4326L44.7225 28.7732L44.5182 28.478C44.1776 27.9558 43.8598 27.6153 43.4284 27.3201C42.6565 26.7979 41.8391 26.639 39.6823 26.5255C37.7297 26.412 36.6172 26.2531 35.5275 25.8898C33.6657 25.2768 32.7122 24.4822 30.5099 21.5534C29.5336 20.2593 28.9206 19.5554 28.3076 18.9651C26.9681 17.671 25.6286 16.9899 23.8804 16.7175Z" fill="#FF007A"/>
<path d="M40.7945 19.6011C40.8399 18.7383 40.9534 18.1707 41.2032 17.6485C41.294 17.4442 41.3848 17.2626 41.4075 17.2626C41.4302 17.2626 41.3848 17.4215 41.3167 17.6031C41.135 18.1026 41.1123 18.8064 41.2259 19.6011C41.3848 20.6227 41.4529 20.759 42.5427 21.8714C43.0422 22.3936 43.6325 23.052 43.8595 23.3245L44.2455 23.824L43.8595 23.4607C43.3827 23.0066 42.2929 22.1439 42.0432 22.0304C41.8843 21.9396 41.8616 21.9396 41.748 22.0531C41.6572 22.1439 41.6345 22.2801 41.6345 22.9385C41.6118 23.9602 41.4756 24.5959 41.135 25.2543C40.9534 25.5949 40.9307 25.5268 41.0896 25.1408C41.2032 24.8456 41.2259 24.7094 41.2259 23.7332C41.2259 21.7579 40.9988 21.2811 39.6139 20.4865C39.2733 20.2822 38.683 19.987 38.3425 19.8281C37.9792 19.6692 37.7068 19.533 37.7295 19.533C37.7749 19.4875 39.1144 19.8735 39.6366 20.1006C40.4312 20.4184 40.5674 20.4411 40.6583 20.4184C40.7264 20.3503 40.7718 20.1687 40.7945 19.6011Z" fill="#FF007A"/>
<path d="M24.8097 22.984C23.8561 21.6671 23.2431 19.6238 23.3794 18.1026L23.4248 17.6259L23.6518 17.6713C24.0605 17.7394 24.7643 18.0118 25.1049 18.2162C26.013 18.761 26.4217 19.5103 26.8076 21.372C26.9212 21.9169 27.0801 22.5526 27.1482 22.7569C27.2617 23.0975 27.6931 23.8921 28.0564 24.3916C28.3061 24.7549 28.1472 24.9365 27.5796 24.8911C26.7168 24.8003 25.5589 24.0056 24.8097 22.984Z" fill="#FF007A"/>
<path d="M39.6367 32.8602C35.1414 31.0439 33.5521 29.4774 33.5521 26.821C33.5521 26.435 33.5748 26.1172 33.5748 26.1172C33.5975 26.1172 33.7565 26.2534 33.9608 26.4123C34.8689 27.1389 35.8906 27.4567 38.7286 27.8654C40.386 28.1151 41.3395 28.2968 42.2023 28.5919C44.9494 29.5001 46.6522 31.3618 47.0609 33.8819C47.1744 34.6084 47.1063 35.9933 46.9247 36.7199C46.7658 37.2875 46.3117 38.3318 46.1982 38.3545C46.1755 38.3545 46.13 38.241 46.13 38.0594C46.0846 37.1058 45.6079 36.1977 44.8132 35.4939C43.8597 34.6765 42.6337 34.0635 39.6367 32.8602Z" fill="#FF007A"/>
<path d="M36.4568 33.6093C36.4114 33.2687 36.2978 32.8374 36.2297 32.6557L36.1162 32.3152L36.3205 32.5649C36.6157 32.9055 36.8427 33.3142 37.0471 33.8817C37.206 34.3131 37.206 34.4493 37.206 35.1532C37.206 35.8343 37.1833 35.9932 37.0471 36.3792C36.82 36.9922 36.5476 37.4235 36.0935 37.9003C35.2762 38.7404 34.2091 39.1944 32.6879 39.3988C32.4155 39.4215 31.6435 39.4896 30.9624 39.535C29.2596 39.6258 28.1245 39.8074 27.1028 40.1707C26.9666 40.2161 26.8303 40.2615 26.8076 40.2388C26.7622 40.1934 27.466 39.7847 28.0336 39.5123C28.8283 39.1263 29.6456 38.922 31.4392 38.6041C32.3247 38.4679 33.2328 38.2863 33.4599 38.1955C35.7075 37.4917 36.82 35.7435 36.4568 33.6093Z" fill="#FF007A"/>
<path d="M38.5226 37.2644C37.9323 35.9703 37.796 34.7443 38.1139 33.5864C38.1593 33.4729 38.2047 33.3594 38.2501 33.3594C38.2955 33.3594 38.4317 33.4275 38.568 33.5183C38.8404 33.6999 39.408 34.0178 40.8611 34.8124C42.7001 35.8114 43.7444 36.5833 44.471 37.4688C45.1067 38.2407 45.4926 39.1261 45.6743 40.2159C45.7878 40.8289 45.7197 42.3047 45.5608 42.9177C45.0613 44.8475 43.9261 46.3914 42.2687 47.2768C42.019 47.413 41.8146 47.5039 41.7919 47.5039C41.7692 47.5039 41.86 47.2768 41.9963 47.0044C42.5411 45.8465 42.6093 44.734 42.2006 43.4853C41.9508 42.7133 41.4287 41.7825 40.3843 40.2159C39.1356 38.3996 38.8404 37.9228 38.5226 37.2644Z" fill="#FF007A"/>
<path d="M21.6098 44.2119C23.2899 42.8042 25.356 41.8053 27.2631 41.4874C28.0804 41.3512 29.4427 41.3966 30.1919 41.6009C31.3952 41.9188 32.485 42.5999 33.0526 43.4399C33.5975 44.2573 33.8472 44.9611 34.0969 46.5277C34.1878 47.1407 34.3013 47.7764 34.324 47.9126C34.5056 48.7299 34.8689 49.3656 35.323 49.7062C36.0268 50.2284 37.2528 50.2511 38.4561 49.797C38.6604 49.7289 38.842 49.6608 38.842 49.6835C38.8875 49.7289 38.2745 50.1376 37.8658 50.3419C37.2982 50.637 36.8441 50.7279 36.2311 50.7279C35.1413 50.7279 34.2105 50.1603 33.4612 49.0251C33.3023 48.798 32.9845 48.1396 32.712 47.5266C31.9174 45.6876 31.5087 45.1427 30.5779 44.5297C29.7605 44.0075 28.7161 43.894 27.9215 44.28C26.8771 44.7795 26.6047 46.119 27.3312 46.9363C27.6264 47.2769 28.1712 47.5493 28.6253 47.6174C29.4654 47.731 30.1919 47.0726 30.1919 46.2325C30.1919 45.6876 29.9876 45.3698 29.4427 45.12C28.7161 44.8022 27.9215 45.1654 27.9442 45.8692C27.9442 46.1644 28.0804 46.346 28.3756 46.4823C28.5572 46.5731 28.5572 46.5731 28.421 46.5504C27.7626 46.4141 27.6036 45.5968 28.1258 45.0746C28.7615 44.4389 30.1011 44.7114 30.5551 45.5968C30.7368 45.9601 30.7595 46.6866 30.6006 47.1407C30.2146 48.1396 29.1248 48.6618 28.0123 48.3667C27.2631 48.1623 26.9452 47.958 26.0371 47.0271C24.4478 45.3925 23.8348 45.0746 21.5644 44.7341L21.1331 44.6659L21.6098 44.2119Z" fill="#FF007A"/>
<path fill-rule="evenodd" clip-rule="evenodd" d="M9.66772 7.68159C14.9577 14.1068 23.1084 24.0964 23.5171 24.6413C23.8576 25.0954 23.7214 25.5268 23.1538 25.8446C22.8359 26.0263 22.1775 26.2079 21.8597 26.2079C21.4964 26.2079 21.065 26.0263 20.7699 25.7311C20.5656 25.5268 19.6801 24.2327 17.6822 21.1222C16.161 18.7383 14.8669 16.7631 14.8442 16.7404C14.7534 16.695 14.7534 16.695 17.5232 21.6444C19.2714 24.7549 19.839 25.8673 19.839 26.0036C19.839 26.2987 19.7482 26.4576 19.385 26.8663C18.772 27.5474 18.4995 28.3194 18.2952 29.9313C18.0681 31.7249 17.4551 32.9963 15.7069 35.1532C14.6853 36.4246 14.5263 36.6517 14.2766 37.1738C13.9587 37.8096 13.8679 38.1728 13.8225 38.9902C13.7771 39.8529 13.8679 40.3978 14.1177 41.2151C14.3447 41.9416 14.5944 42.4184 15.2074 43.3493C15.7296 44.1666 16.0475 44.7796 16.0475 45.0067C16.0475 45.1883 16.0929 45.1883 16.9102 45.0067C18.8628 44.5526 20.4747 43.7807 21.3602 42.8271C21.9051 42.2368 22.0413 41.9189 22.0413 41.1016C22.0413 40.5794 22.0186 40.4659 21.8824 40.148C21.6553 39.6486 21.224 39.2399 20.2931 38.6042C19.0671 37.7641 18.5449 37.083 18.4087 36.1749C18.2952 35.4029 18.4314 34.8808 19.1125 33.4504C19.8163 31.9747 19.998 31.3617 20.1115 29.8632C20.1796 28.9097 20.2931 28.5237 20.5656 28.2285C20.8607 27.9107 21.1104 27.7972 21.8143 27.7064C22.9722 27.5474 23.7214 27.2523 24.3117 26.6847C24.8339 26.2079 25.0609 25.7311 25.0836 25.0273L25.1063 24.5051L24.8112 24.1873C23.7441 22.9613 8.9639 6.70532 8.89579 6.70532C8.87308 6.70532 9.23634 7.13669 9.66772 7.68159ZM16.6378 39.9664C16.8875 39.535 16.7513 38.9902 16.3426 38.7177C15.9567 38.468 15.3664 38.5815 15.3664 38.922C15.3664 39.0129 15.4118 39.1037 15.548 39.1491C15.7523 39.2626 15.775 39.3761 15.6161 39.6259C15.4572 39.8756 15.4572 40.1026 15.6615 40.2616C15.9794 40.5113 16.4108 40.3751 16.6378 39.9664Z" fill="#FF007A"/>
<path fill-rule="evenodd" clip-rule="evenodd" d="M25.832 28.024C25.2871 28.1829 24.7649 28.7732 24.606 29.3635C24.5152 29.7268 24.5606 30.3852 24.7195 30.5895C24.9692 30.9074 25.1963 30.9982 25.832 30.9982C27.0807 30.9982 28.1478 30.4533 28.2613 29.7949C28.3748 29.25 27.898 28.5008 27.2396 28.1602C26.8991 27.9786 26.1952 27.9105 25.832 28.024ZM27.285 29.1592C27.4667 28.8867 27.3985 28.5916 27.058 28.3873C26.445 28.0013 25.5141 28.3192 25.5141 28.9095C25.5141 29.2046 25.9909 29.5225 26.445 29.5225C26.7401 29.5225 27.1488 29.3408 27.285 29.1592Z" fill="#FF007A"/>
</g>
<defs>
<clipPath id="clip0_374_4957">
<rect width="38.2105" height="44" fill="white" transform="translate(8.89478 6.70532)"/>
</clipPath>
</defs>
</svg>
