<svg width="56" height="57" viewBox="0 0 56 57" fill="none" xmlns="http://www.w3.org/2000/svg">
<rect y="0.705322" width="56" height="56" rx="28" fill="white"/>
<g clip-path="url(#clip0_374_5094)">
<path fill-rule="evenodd" clip-rule="evenodd" d="M15.8533 15.5415C15.2549 12.4301 17.6484 9.55798 20.7598 9.55798C23.5123 9.55798 25.7861 11.8317 25.7861 14.5842V20.807C26.5041 20.807 27.2221 20.6874 27.9401 20.6874C28.6582 20.6874 29.2565 20.6874 29.9746 20.807V14.5842C29.9746 11.8317 32.2483 9.55798 35.0008 9.55798C38.1123 9.55798 40.5057 12.4301 40.027 15.5415L38.7106 22.8414C43.3778 24.8759 46.968 28.466 46.968 32.8938V35.6462C46.968 39.356 44.5745 42.4675 41.1041 44.5019C37.6336 46.656 33.086 47.8527 27.9401 47.8527C22.7943 47.8527 18.2467 46.656 14.7762 44.5019C11.4254 42.4675 9.03198 39.356 9.03198 35.6462V32.8938C9.03198 28.466 12.5025 24.8759 17.1697 22.8414L15.8533 15.5415ZM36.9155 23.7988L38.4713 15.1825C38.8303 13.0284 37.2746 10.994 35.0008 10.994C33.086 10.994 31.5303 12.5498 31.5303 14.4645V22.3628C31.0516 22.2431 30.4533 22.2431 29.9746 22.2431C29.2565 22.2431 28.6582 22.1234 27.9401 22.1234C27.2221 22.1234 26.5041 22.1234 25.7861 22.2431C25.3074 22.2431 24.709 22.3628 24.2303 22.3628V14.5842C24.2303 12.6694 22.6746 11.1137 20.7598 11.1137C18.6057 11.1137 16.9303 13.1481 17.409 15.3022L18.9648 23.9185C13.9385 25.8332 10.5877 29.184 10.5877 33.0135V35.7659C10.5877 41.6298 18.3664 46.4166 27.9401 46.4166C37.5139 46.4166 45.2926 41.6298 45.2926 35.7659V33.0135C45.4122 29.0643 42.0614 25.7136 36.9155 23.7988Z" fill="#633001"/>
<path d="M45.4121 35.6464C45.4121 41.5102 37.6335 46.2971 28.0597 46.2971C18.4859 46.2971 10.7073 41.5102 10.7073 35.6464V32.8939H45.5318V35.6464H45.4121Z" fill="#FEDC90"/>
<path fill-rule="evenodd" clip-rule="evenodd" d="M17.4089 15.3023C16.9302 13.1482 18.6056 11.1138 20.7597 11.1138C22.6745 11.1138 24.2302 12.6695 24.2302 14.5842V22.4825C25.4269 22.3628 26.6236 22.2432 27.94 22.2432C29.1367 22.2432 30.3335 22.3628 31.5302 22.4825V14.5842C31.5302 12.6695 33.0859 11.1138 35.0007 11.1138C37.1548 11.1138 38.8302 13.1482 38.4712 15.3023L36.9154 23.9186C41.9416 25.8333 45.4121 29.1841 45.4121 33.0135C45.4121 38.8774 37.6335 43.6642 28.0597 43.6642C18.4859 43.6642 10.7073 38.8774 10.7073 33.0135C10.7073 29.1841 14.0581 25.8333 19.0843 23.9186L17.4089 15.3023Z" fill="#D1884F"/>
<path d="M23.1536 32.1759C23.1536 33.7317 22.3159 35.048 21.2388 35.048C20.1618 35.048 19.3241 33.7317 19.3241 32.1759C19.3241 30.6202 20.1618 29.3038 21.2388 29.3038C22.3159 29.3038 23.1536 30.6202 23.1536 32.1759Z" fill="#633001"/>
<path d="M36.4372 32.1759C36.4372 33.7317 35.5995 35.048 34.5224 35.048C33.4454 35.048 32.6077 33.7317 32.6077 32.1759C32.6077 30.6202 33.4454 29.3038 34.5224 29.3038C35.5995 29.3038 36.4372 30.6202 36.4372 32.1759Z" fill="#633001"/>
</g>
<defs>
<clipPath id="clip0_374_5094">
<rect width="37.936" height="38.2947" fill="white" transform="translate(9.03198 9.55798)"/>
</clipPath>
</defs>
</svg>
