<svg width="56" height="57" viewBox="0 0 56 57" fill="none" xmlns="http://www.w3.org/2000/svg">
<rect y="0.705322" width="56" height="56" rx="28" fill="white"/>
<path d="M26.7345 6.74218C37.57 6.11585 47.2405 13.4815 49.5141 24.0915C50.1341 27.0039 50.1592 30.0165 49.5892 32.9415C48.1675 40.1568 43.2445 46.1821 36.4614 49.0193C31.8391 50.961 26.5529 51.2303 21.7489 49.8023C15.1662 47.8419 9.86749 42.9252 7.42481 36.5053C5.67109 31.9018 5.5333 26.7095 7.03649 22.0183C9.80486 13.3374 17.6402 7.26204 26.7345 6.74218Z" fill="white"/>
<path d="M14.4647 27.1107C14.5524 27.5115 14.6025 27.9186 14.6902 28.3258C14.7466 28.57 14.8217 28.5137 14.947 28.4072C15.1912 28.2068 15.423 27.9875 15.6923 27.8247C15.7675 27.8372 15.8113 27.8999 15.8489 27.9562C16.5629 28.8895 17.5087 29.4594 18.6298 29.7663C19.1434 29.9104 19.6758 30.0043 20.2081 30.0607C20.039 29.8728 19.9012 29.6661 19.7948 29.4344C19.6131 29.0335 19.6758 28.6765 19.9827 28.3571C20.3522 27.9688 20.8345 27.8059 21.3293 27.6806C22.3627 27.4113 23.4149 27.3863 24.4734 27.4614C25.3252 27.5178 26.1645 27.6618 26.9913 27.8936C27.6802 28.0878 28.3504 28.3132 28.9579 28.7016C29.0456 28.7705 29.102 28.8644 29.1834 28.9333C29.9663 29.7726 30.4235 30.7622 30.4549 31.9084C30.4737 32.6975 30.2544 33.4554 29.8599 34.1506C29.1458 35.4033 28.0999 36.3177 26.8535 37.0129C25.5883 37.7207 24.1916 38.1591 22.7448 38.3094C20.1643 38.5913 17.7655 38.0276 15.567 36.6559C13.7382 35.516 12.3289 33.9564 11.1827 32.1526C10.6504 31.2946 10.1806 30.3989 9.7735 29.4719C9.7234 29.3592 9.71087 29.2339 9.66076 29.14C9.69208 29.2527 9.75471 29.3717 9.63571 29.4907C9.59813 29.021 9.64197 28.5575 9.66703 28.094C9.72966 26.81 9.93008 25.5386 10.262 24.3047C11.7715 18.7241 15.8176 14.1833 21.1915 12.0412C22.8074 11.3961 24.5047 10.9953 26.2334 10.8387C28.9642 10.5881 31.6073 10.9451 34.1878 11.8596C33.7932 12.6049 31.5572 14.5966 29.816 15.7553C29.7659 15.2543 29.6532 14.7595 29.4778 14.2835C29.4715 14.1582 29.5843 14.1206 29.6532 14.058C30.0164 13.7448 30.3797 13.4379 30.743 13.131C30.7806 13.0997 30.8181 13.0684 30.8495 13.0371C30.8933 12.9932 30.9622 12.9557 30.9434 12.8868C30.9309 12.8179 30.8495 12.8179 30.7868 12.8053C30.6177 12.7678 30.4486 12.749 30.2732 12.7427C30.0352 12.7177 29.7972 12.6613 29.5592 12.655C29.3713 12.6425 29.1897 12.5987 29.008 12.6112C28.9141 12.6112 28.8201 12.6049 28.7262 12.5924C28.5696 12.5423 28.4068 12.5673 28.2502 12.5673C28.1562 12.5673 28.0623 12.5611 27.9621 12.5673C27.6865 12.5799 27.4172 12.536 27.1416 12.5861C27.0727 12.5987 27.0101 12.6049 26.9412 12.6049C26.8597 12.6049 26.7846 12.6112 26.7032 12.6049C26.6029 12.5924 26.4965 12.6049 26.3963 12.6362C26.1081 12.6613 25.82 12.6863 25.5382 12.7364C25.1937 12.8116 24.843 12.8241 24.5047 12.9118C24.1916 12.9932 23.8722 13.0371 23.5653 13.1436C23.1581 13.2563 22.751 13.3816 22.3502 13.5194C21.7677 13.7511 21.1727 13.964 20.6152 14.2647C19.3563 14.8785 18.1788 15.6551 17.1266 16.5758C16.1495 17.4214 15.2727 18.3734 14.5148 19.4194C14.139 19.9455 13.7883 20.4904 13.4814 21.0603C13.2809 21.4299 13.093 21.8057 12.9177 22.1877C12.7924 22.4821 12.6421 22.7702 12.5419 23.0771C12.4166 23.384 12.3164 23.6972 12.2162 24.0166C12.0972 24.336 12.0283 24.668 11.9406 24.9874C11.903 25.1127 11.878 25.2442 11.8466 25.3758C11.8091 25.5323 11.784 25.6889 11.7527 25.8455C11.7026 26.1086 11.6588 26.3779 11.6212 26.6472C11.5711 26.9228 11.5397 27.1984 11.521 27.4802C11.4771 27.6618 11.5084 27.856 11.4771 28.0439C11.427 28.2757 11.4583 28.5137 11.4458 28.7454C11.4395 28.9082 11.4333 29.0711 11.4395 29.2339C11.4395 29.3028 11.4082 29.3968 11.4771 29.4281C11.5585 29.4657 11.6149 29.378 11.6775 29.3341C11.878 29.1713 12.0721 29.0022 12.2663 28.8331C12.9239 28.2694 13.5878 27.712 14.2455 27.1483C14.3019 27.1107 14.3645 26.9854 14.4647 27.1107Z" fill="#4189C9"/>
<path d="M28.9514 28.7513C28.1747 28.2878 27.3292 28.0248 26.4586 27.8181C25.3186 27.5487 24.1411 27.436 22.9699 27.4986C22.1432 27.5425 21.3227 27.6552 20.5586 28.0185C20.4646 28.0623 20.3769 28.1124 20.2955 28.1688C19.6754 28.5822 19.5815 29.1334 20.0324 29.7284C20.1264 29.8536 20.2266 29.9664 20.3519 30.1167C19.951 30.1167 19.594 30.0415 19.2433 29.9726C18.2975 29.7847 17.4081 29.459 16.644 28.8452C16.2745 28.5509 15.9425 28.2252 15.6982 27.8118C15.7985 27.649 15.9676 27.5738 16.1241 27.4798C16.4248 27.3546 16.7004 27.1729 17.001 27.0352C18.3351 26.4214 19.7631 26.0456 21.2225 25.9078C21.8049 25.8514 22.3874 25.795 22.9762 25.8201C24.7048 25.889 26.421 26.1896 28.0682 26.7095C28.4941 26.841 28.9138 26.9913 29.3585 27.1354C29.3585 27.0101 29.2896 26.9349 29.2395 26.8535C29.0641 26.5529 28.8574 26.2648 28.6319 25.9954C28.5505 25.8952 28.4315 25.8138 28.4378 25.6635C28.6695 25.7199 28.9075 25.77 29.1392 25.8263C29.2019 25.8389 29.277 25.8764 29.3146 25.8263C29.371 25.7574 29.2896 25.7011 29.252 25.651C28.9075 25.1374 28.4816 24.6989 28.0181 24.2918C28.2624 24.1478 28.5129 24.2668 28.7509 24.2981C31.1873 24.6113 33.4045 25.4756 35.3399 26.9913C37.9016 29.0018 39.5551 31.5948 40.2566 34.7891C40.4821 35.8539 40.551 36.9499 40.4695 38.0335C40.3317 39.9187 39.7367 41.6599 38.6219 43.2069C38.5467 43.3072 38.4465 43.3886 38.3964 43.5076C38.1459 43.8834 37.7701 44.1402 37.4318 44.4158C35.5842 45.9189 33.4233 46.7019 31.0997 47.0651C29.2896 47.3532 27.4482 47.3846 25.6318 47.1591C22.7695 46.8083 20.0324 45.7749 17.6524 44.1464C17.0699 43.7519 16.4999 43.3447 15.9926 42.8562C15.9738 42.8437 15.9738 42.8186 15.9864 42.7998L15.9926 42.7936C16.0991 42.7497 16.168 42.8312 16.2431 42.8813C17.4582 43.7957 18.8424 44.4659 20.3143 44.8605C20.8091 44.9857 21.3039 45.0859 21.8112 45.1611C21.9239 45.2049 22.0492 45.1799 22.162 45.2049C22.187 45.2049 22.2121 45.2112 22.2308 45.2175C23.3708 45.3553 24.5107 45.2738 25.6381 45.0734C28.1121 44.635 30.3167 43.6015 32.1957 41.9292C33.4797 40.7956 34.4944 39.4552 35.033 37.8017C35.5716 36.1482 35.4965 34.5386 34.7386 32.9477C34.582 33.6617 34.2125 34.2505 33.7428 34.7891C33.273 35.3152 32.7218 35.7662 32.108 36.1169C32.0391 36.1608 31.9577 36.2359 31.8763 36.1733C31.8074 36.1169 31.845 36.023 31.87 35.9541C32.0204 35.4593 32.1206 34.9519 32.1769 34.4384C32.3962 32.2775 31.5631 30.5927 29.8407 29.3213C29.5526 29.1083 29.2583 28.9204 28.9514 28.7513Z" fill="#262F71"/>
<path d="M21.8111 45.2049C21.1785 45.1423 20.5522 45.0107 19.9384 44.8228C18.7859 44.4721 17.6961 43.9648 16.6877 43.3009C16.4497 43.1443 16.243 42.9313 15.9862 42.8061C15.8359 42.7873 15.7733 42.637 15.6543 42.5743C13.1239 40.3258 11.3952 37.5637 10.4056 34.3381C9.92337 32.7723 9.66031 31.1438 9.63525 29.5029C9.64152 29.3776 9.64778 29.2586 9.66031 29.0644C9.78557 29.34 9.87952 29.553 9.97973 29.7722C10.8879 31.7702 12.0529 33.5865 13.6563 35.1022C15.3599 36.7119 17.3454 37.7892 19.6816 38.165C22.4186 38.6097 24.9803 38.1337 27.3353 36.6555C28.5128 35.9165 29.4711 34.9707 30.0285 33.6742C30.6987 32.1021 30.4481 30.6428 29.421 29.2962C29.3333 29.1772 29.2331 29.0644 29.1454 28.9517C29.2644 28.8452 29.3333 28.9705 29.4022 29.0268C30.0097 29.5342 30.492 30.173 30.8177 30.8996C31.1308 31.5948 31.3 32.3401 31.3062 33.1042C31.3187 33.8809 31.1434 34.6513 30.8052 35.3528C30.8803 35.3528 30.9492 35.3277 31.0056 35.2776C31.3313 35.0897 31.6382 34.8705 31.9263 34.6262C32.014 34.5511 32.0954 34.4321 32.2394 34.4509C32.1643 35.0396 32.0328 35.6221 31.8574 36.192C32.2332 35.9791 32.5965 35.7411 32.9409 35.4718C33.2103 35.2588 33.4295 34.9958 33.6988 34.7765C33.8115 34.8267 33.8115 34.9394 33.8366 35.0333C34.2687 36.5992 33.9556 38.0585 33.1852 39.4364C32.2457 41.1087 30.8678 42.3551 29.2644 43.3635C27.9679 44.1777 26.5461 44.7602 25.0492 45.0859C24.1097 45.2989 23.1452 45.3552 22.1869 45.255C22.0616 45.1861 21.9301 45.2613 21.8111 45.2049Z" fill="#161F42"/>
<path d="M45.4869 33.5928C45.4055 31.8015 44.9608 30.0477 44.1842 28.4318C43.6768 27.3796 43.038 26.3962 42.2801 25.5069C41.5974 24.6989 40.8145 24.0099 39.9878 23.3523C40.0629 23.2771 40.1631 23.2897 40.2508 23.3022C41.4033 23.4337 42.5307 23.703 43.6205 24.1039C43.8898 24.2041 44.1528 24.3231 44.4034 24.4672C44.4911 24.511 44.5787 24.5611 44.6664 24.6175C44.6852 24.63 44.6977 24.6613 44.7291 24.6551C44.7103 24.63 44.704 24.5987 44.7165 24.5674C43.9775 23.6028 43.0756 22.7949 42.1361 22.0307C41.0149 21.1226 39.7936 20.3459 38.4908 19.7196C36.687 18.8302 34.7517 18.2477 32.7537 18.0034C32.5783 17.9784 32.3904 18.0034 32.2213 17.9408C32.2088 17.8218 32.309 17.7842 32.3779 17.7279C33.5491 16.7508 34.4886 15.5983 35.1525 14.2267C35.3529 13.8133 35.522 13.3811 35.6598 12.9427C35.6974 12.8174 35.7225 12.6797 35.8477 12.6045C37.9459 13.6129 39.8249 15.0159 41.3907 16.7383C45.5496 21.3105 47.1154 27.6677 45.5621 33.6491C45.5182 33.6679 45.512 33.6241 45.4869 33.5928Z" fill="#4189C9"/>
<path d="M38.3905 43.5079C38.3905 43.3263 38.5346 43.2198 38.6286 43.0883C39.4866 41.8669 40.0065 40.5141 40.2758 39.0485C40.4449 38.1403 40.4574 37.2258 40.4011 36.3177C40.3071 34.9209 39.9501 33.5743 39.3864 32.2841C38.973 31.3383 38.4532 30.4427 37.8394 29.6159C37.1817 28.7453 36.4176 27.9499 35.5721 27.261C34.2693 26.1837 32.7661 25.3757 31.1502 24.8746C30.2921 24.5991 29.4027 24.4174 28.5071 24.3297C28.3442 24.3172 28.1877 24.2734 28.0185 24.2859C27.4486 23.8663 26.8661 23.4591 26.2147 23.1648L26.221 23.1021C26.4527 23.1021 26.6907 23.1084 26.9225 23.1021C30.2044 23.0458 33.2359 23.8475 35.879 25.8455C38.616 27.9186 40.3322 30.6557 40.971 34.0378C41.5159 36.9189 41.0963 39.6435 39.4929 42.1425C39.1797 42.6498 38.8352 43.1196 38.3905 43.5079Z" fill="#161F42"/>
<path d="M35.8601 12.6046C35.5344 13.6129 35.121 14.5775 34.526 15.4606C33.931 16.35 33.2044 17.1454 32.3714 17.8219C32.3213 17.8595 32.2775 17.9033 32.2336 17.9471C31.9455 18.0912 31.7075 18.3167 31.4444 18.492C30.4736 19.1309 29.4339 19.6695 28.3504 20.0892C28.3253 20.0954 28.294 20.1017 28.269 20.108C28.2189 20.0391 28.2752 20.014 28.3065 19.9827C28.9203 19.394 29.3024 18.6737 29.5592 17.872C29.5843 17.7655 29.6594 17.6778 29.7596 17.6465C31.6699 16.8886 33.1982 15.636 34.4446 14.0201C34.5573 13.876 34.67 13.7257 34.8078 13.5378C34.4195 13.5315 34.1251 13.7257 33.7994 13.7758C33.7368 13.7821 33.6554 13.8322 33.6429 13.7132C34.8266 12.329 35.7223 10.713 36.2609 8.97812C36.2922 8.86538 36.2609 8.71506 36.4175 8.65869C36.43 8.66495 36.4363 8.67748 36.43 8.69001C36.43 8.70253 36.4238 8.7088 36.4238 8.7088C36.405 9.94893 36.2296 11.1828 35.9039 12.3791C35.8851 12.448 35.8726 12.5231 35.8601 12.6046Z" fill="#161F42"/>
<path d="M28.4321 25.6699C28.8204 26.0958 29.1586 26.5718 29.4405 27.0792C29.4655 27.1293 29.5344 27.1856 29.4718 27.242C29.4217 27.2859 29.3716 27.2295 29.3214 27.2107C28.05 26.7347 26.741 26.3777 25.4006 26.1459C24.7242 26.0269 24.0415 25.9768 23.3588 25.9267C22.745 25.8891 22.1249 25.8954 21.5111 25.9518C20.1082 26.0645 18.7428 26.3651 17.44 26.9288C17.0391 27.1042 16.632 27.2608 16.2562 27.4925C16.2124 27.5176 16.1623 27.5614 16.1122 27.4988C17.2396 26.7034 18.4922 26.1021 19.82 25.72C21.6489 25.1751 23.5091 25.0436 25.4069 25.1877C26.3714 25.2628 27.3297 25.4131 28.2692 25.6261C28.3318 25.6323 28.382 25.6511 28.4321 25.6699Z" fill="#161F42"/>
<path d="M27.962 12.5044H28.2438C28.3941 12.567 28.5633 12.4856 28.7136 12.5482H28.9954C29.0205 12.686 28.9077 12.7424 28.8326 12.805C27.5298 13.9074 26.2396 15.016 24.9368 16.112C24.5046 16.4753 24.0787 16.8386 23.6528 17.2019C23.5839 17.2457 23.5338 17.3083 23.5025 17.3772C22.9388 17.5902 22.4127 17.8532 21.9993 18.3105C21.8052 18.5297 21.6736 18.7802 21.5358 19.0307C21.1475 19.2813 20.8218 19.6132 20.4711 19.9076C19.5441 20.6842 18.6297 21.4797 17.7027 22.2501C17.6276 22.3127 17.5712 22.4066 17.4835 22.4568C17.3269 22.2187 17.3582 21.9557 17.3958 21.6989C17.5148 21.5047 17.6965 21.3857 17.8593 21.2417C18.7612 20.4776 19.6569 19.7134 20.5525 18.9493C21.4294 18.204 22.3 17.4587 23.1768 16.7196C24.1852 15.8678 25.1873 15.0097 26.1957 14.1516C26.7532 13.6756 27.3106 13.1934 27.8806 12.7299C27.9682 12.6735 28.0246 12.6171 27.962 12.5044Z" fill="#5C94CE"/>
<path d="M44.4468 24.5364C43.3445 24.0041 42.1733 23.6721 40.9707 23.4779C40.645 23.4278 40.3256 23.3589 39.9999 23.3589C39.5803 23.0959 39.1669 22.814 38.7347 22.5635C37.338 21.7555 35.8098 21.2044 34.2126 20.9476C34.1751 20.9351 34.1437 20.9225 34.1124 20.91C34.5884 20.8223 36.2232 21.0666 37.3505 21.3797C38.4028 21.6679 39.4174 22.0624 40.3882 22.5698C40.288 22.2629 40.1001 22.0624 39.9874 21.8182C39.9749 21.7555 39.8872 21.6992 39.9435 21.6303C39.9999 21.5614 40.0751 21.6365 40.1314 21.6616C40.2943 21.7368 40.4509 21.8244 40.6137 21.8996C41.9791 22.6073 43.2693 23.4592 44.4594 24.4362C44.522 24.5177 44.522 24.5177 44.4468 24.5364Z" fill="#161F42"/>
<path d="M27.9619 12.5047C27.9932 12.5736 28.0809 12.5234 28.1248 12.5986C27.8617 12.8241 27.5986 13.0558 27.3356 13.2813C26.8533 13.6884 26.371 14.0955 25.8888 14.5026C25.2061 15.0789 24.5234 15.6614 23.8344 16.2376C23.3584 16.6384 22.8949 17.0518 22.4189 17.4589C21.8427 17.9474 21.2602 18.4297 20.6902 18.9183C20.233 19.3066 19.7821 19.7012 19.3248 20.0895C18.8426 20.4966 18.3603 20.9037 17.878 21.3108L17.3958 21.7179L17.5335 21.1041C17.4584 20.9037 17.6212 20.816 17.7277 20.7221C18.1661 20.3588 18.5983 19.983 19.0305 19.6135C20.0451 18.7554 21.0535 17.8911 22.0682 17.033C22.9388 16.2939 23.8094 15.5549 24.68 14.8158C25.4879 14.1268 26.3021 13.4441 27.1038 12.7427C27.1665 12.6863 27.2855 12.6237 27.1101 12.5548C27.392 12.4545 27.6801 12.5297 27.9619 12.5047Z" fill="#6497D0"/>
<path d="M27.1165 12.5543C27.1791 12.5669 27.2543 12.5293 27.3232 12.5856C27.1603 12.8299 26.916 12.9865 26.6968 13.1744C26.083 13.713 25.4567 14.2392 24.8366 14.7653C24.2667 15.2475 23.6905 15.7235 23.1205 16.2058C22.5505 16.6881 21.9806 17.1892 21.4044 17.6777C20.8281 18.1662 20.2582 18.636 19.6882 19.1182C19.1183 19.6005 18.5483 20.0953 17.9721 20.5901C17.803 20.7404 17.5712 20.8407 17.5274 21.0974C17.2267 21.135 17.0639 21.3856 16.8447 21.5484C16.4939 21.7989 16.2246 22.1434 15.9052 22.4253C15.5795 22.657 15.2914 22.9326 14.9908 23.1894C14.0888 23.9535 13.1932 24.7239 12.2913 25.4817C12.166 25.5882 12.0533 25.7135 11.9155 25.8012C11.8528 25.8388 11.7965 25.9139 11.7088 25.8513C11.7025 25.6884 11.7338 25.5256 11.8027 25.3815C12.2537 25.0934 12.6295 24.7114 13.0366 24.3731C14.1577 23.4337 15.2663 22.4816 16.3812 21.5359C17.4961 20.5901 18.5921 19.6506 19.7007 18.7111C20.7843 17.7904 21.8678 16.8697 22.9514 15.949C24.06 15.0095 25.1686 14.07 26.2709 13.1243C26.4901 12.9364 26.7219 12.761 26.9286 12.5606L27.1165 12.5543Z" fill="#689AD1"/>
<path d="M29.5592 12.5983C29.816 12.592 30.0602 12.6609 30.3108 12.6922C30.3797 12.8426 30.2481 12.8989 30.173 12.9678C29.8598 13.2434 29.5341 13.5002 29.2272 13.7821C29.1959 13.7382 29.1583 13.6944 29.127 13.6505C29.0581 13.5503 29.008 13.5754 28.9642 13.6693C28.5946 14.4648 27.962 15.0159 27.2668 15.5045C26.4902 16.0494 25.6509 16.5066 24.7678 16.8699C24.7177 16.7822 24.7177 16.7759 24.7991 16.6945C24.9682 16.5191 25.1624 16.3751 25.344 16.2185C26.6781 15.0848 28.0121 13.9574 29.34 12.8113C29.4151 12.7486 29.484 12.6735 29.5592 12.5983Z" fill="#4E8FCC"/>
<path d="M29.5591 12.5983C29.5528 12.6735 29.509 12.7486 29.4464 12.7925C28.5883 13.519 27.7302 14.2518 26.8721 14.9784C26.2145 15.5358 25.5631 16.0995 24.9055 16.6632C24.8491 16.7133 24.7364 16.7509 24.7677 16.8699C24.3543 17.064 23.9284 17.2394 23.4962 17.3835C23.3522 17.3459 23.4712 17.2895 23.4962 17.2645C23.753 17.039 24.0098 16.8135 24.2729 16.5943C24.7489 16.1872 25.2312 15.7801 25.7134 15.3729C26.1894 14.9721 26.6655 14.5712 27.1352 14.1704C27.6049 13.7695 28.081 13.3624 28.5507 12.9553C28.701 12.8238 28.8889 12.7236 28.9891 12.5419C29.1833 12.5294 29.3712 12.592 29.5591 12.5983Z" fill="#5591CD"/>
<path d="M26.2274 18.248C26.7222 18.0037 27.242 17.7971 27.6742 17.4401C27.7619 17.4338 27.7556 17.4902 27.7306 17.5465C27.3297 19.2 26.077 20.2898 24.3797 20.4464C24.054 20.4777 23.7283 20.5153 23.3964 20.484C23.4402 20.365 23.5529 20.3713 23.6469 20.3462C24.0164 20.246 24.3797 20.1395 24.7242 19.9642C25.363 19.6322 25.8328 19.1437 26.1021 18.4735C26.1209 18.3858 26.1647 18.3044 26.2274 18.248Z" fill="#161F42"/>
<path d="M26.2273 18.248C26.0206 19.0372 25.5195 19.5821 24.8243 19.9767C24.3796 20.2272 23.8848 20.3462 23.3963 20.484C23.2773 20.1333 23.4088 19.8389 23.6155 19.5696C23.8598 19.2564 24.198 19.0623 24.555 18.8994C25.0999 18.6489 25.6573 18.4359 26.2273 18.248Z" fill="#418AC9"/>
<path d="M11.7091 25.8452C11.9847 25.745 12.1663 25.507 12.3855 25.3254C13.0933 24.7429 13.7885 24.1479 14.4837 23.5591C14.8532 23.2459 15.2103 22.9328 15.5735 22.6134C15.6737 22.5257 15.7614 22.4317 15.9055 22.4192C15.5297 22.8889 15.1727 23.3712 14.9034 23.9161C14.1831 24.5237 13.4628 25.1375 12.7488 25.7513C12.4168 26.0331 12.0786 26.3087 11.7529 26.6031C11.7028 26.6469 11.6464 26.7033 11.5713 26.6406C11.5838 26.3776 11.6277 26.1083 11.7091 25.8452Z" fill="#6497D0"/>
<path d="M14.4644 27.1107C14.2452 27.1295 14.145 27.3236 13.9947 27.4426C13.3746 27.9437 12.7796 28.4573 12.1784 28.9771C11.9779 29.1525 11.7838 29.3279 11.5708 29.4907C11.433 29.5972 11.3767 29.5534 11.3829 29.3905C11.3829 29.1964 11.3829 29.0022 11.3829 28.8018C11.6021 28.5638 11.8589 28.3821 12.1032 28.1754C12.8047 27.5804 13.4936 26.9792 14.2077 26.3967C14.2703 26.3466 14.3204 26.2526 14.4269 26.3152L14.4644 27.1107Z" fill="#468CCA"/>
<path d="M17.4834 22.4694C17.4897 22.388 17.5335 22.3191 17.6024 22.2752C18.1661 21.7992 18.7298 21.3232 19.2935 20.8472C19.757 20.4589 20.2142 20.058 20.6777 19.6634C20.9219 19.4567 21.1599 19.2438 21.398 19.0371C21.4418 18.9995 21.4856 18.9682 21.5295 19.0371C21.4794 19.25 21.4167 19.463 21.423 19.6885C21.1725 19.9641 20.8656 20.1833 20.5837 20.4275C19.7069 21.1791 18.83 21.9245 17.9531 22.6698C17.9156 22.7011 17.8905 22.7387 17.8592 22.7763C17.6901 22.745 17.546 22.6322 17.4834 22.4694Z" fill="#5591CD"/>
<path d="M11.565 26.6469C11.7654 26.5843 11.8844 26.4089 12.041 26.2836C12.8678 25.6009 13.6757 24.9057 14.4962 24.2105C14.6277 24.104 14.7154 23.9412 14.9096 23.9224C14.7593 24.2919 14.634 24.6677 14.5338 25.0498C14.3897 25.0372 14.3146 25.15 14.2206 25.2314C13.3688 25.9642 12.5108 26.6845 11.6589 27.411C11.6088 27.4549 11.5587 27.5175 11.4773 27.4924C11.4648 27.2043 11.4961 26.9225 11.565 26.6469Z" fill="#5C94CE"/>
<path d="M17.8594 22.7765C17.8031 22.67 17.897 22.6387 17.9534 22.5948C18.6736 21.981 19.3939 21.3672 20.1142 20.7597C20.5213 20.4152 20.9284 20.0707 21.3418 19.7263C21.3669 19.7137 21.3982 19.7012 21.4295 19.6949C21.4295 19.8891 21.4608 20.077 21.5172 20.2586C21.2729 20.5468 20.9597 20.7597 20.6779 21.004C20.0453 21.5489 19.4127 22.0875 18.7676 22.6262C18.7238 22.6575 18.6862 22.7013 18.6736 22.7514C18.4043 22.8516 18.135 22.8892 17.8594 22.7765Z" fill="#4E8FCC"/>
<path d="M14.4146 26.3216C14.1516 26.4719 13.9386 26.6911 13.7069 26.8853C13.0931 27.3863 12.4918 27.8999 11.8968 28.4198C11.734 28.5638 11.5836 28.7204 11.3769 28.8144C11.402 28.5638 11.3268 28.307 11.4208 28.0628C12.3478 27.2736 13.2747 26.4844 14.208 25.6952C14.2706 25.6389 14.3395 25.5762 14.4334 25.6201L14.4146 26.3216Z" fill="#4E8FCC"/>
<path d="M14.4395 25.6137C14.1389 25.7703 13.9134 26.0208 13.6566 26.2337C13.0491 26.7348 12.4603 27.2484 11.859 27.7495C11.7275 27.8622 11.6335 28.0376 11.4331 28.0564C11.4582 27.8685 11.383 27.6743 11.4832 27.4927C12.0657 26.9916 12.6545 26.4905 13.2432 25.9957C13.6378 25.6575 14.0386 25.3256 14.4395 24.9874C14.5648 24.8809 14.5334 24.9999 14.5397 25.0562C14.4959 25.2379 14.4708 25.4258 14.4395 25.6137Z" fill="#5591CD"/>
<path d="M18.6734 22.7577C18.5857 22.6951 18.6484 22.6512 18.6922 22.6074C19.2434 22.1439 19.8008 21.6804 20.352 21.2169C20.6965 20.9288 21.0347 20.6345 21.3792 20.3401C21.4168 20.2962 21.4606 20.2712 21.517 20.2587L21.6548 20.5405C21.5483 20.7096 21.3729 20.8098 21.2476 20.9664C20.5712 21.718 19.8071 22.3506 18.8488 22.7139C18.7924 22.7327 18.7361 22.7452 18.6734 22.7577Z" fill="#488DCA"/>
<path d="M29.2272 13.7886C29.3149 13.5255 29.5904 13.4441 29.7533 13.2562C29.9287 13.0558 30.2105 12.9681 30.317 12.6925C30.5237 12.6925 30.7178 12.7489 30.912 12.7802C31.0811 12.8115 31.0936 12.8867 30.9746 12.9931C30.7178 13.2186 30.461 13.4504 30.2042 13.6696C29.96 13.8763 29.7157 14.083 29.4714 14.2896C29.3838 14.1205 29.3023 13.9514 29.2272 13.7886Z" fill="#468CCA"/>
<path d="M17.6277 24.4987C17.6715 24.6051 17.5462 24.6552 17.5588 24.7492C17.4961 24.4611 17.3395 24.3546 17.0514 24.411C16.7445 24.4799 16.469 24.6365 16.2623 24.8745C16.2059 24.9371 16.137 24.9935 16.0744 25.0498C16.0243 24.9872 16.0744 24.9308 16.0932 24.8745C16.2184 24.4673 16.494 24.1792 16.8385 23.9475C16.9136 23.8911 17.0013 23.8535 17.0953 23.8285C17.4961 23.7345 17.7153 23.9287 17.659 24.3358C17.6652 24.3922 17.6527 24.4486 17.6277 24.4987Z" fill="#428AC9"/>
<path d="M17.6276 24.4989C17.6276 24.4362 17.6339 24.3736 17.6339 24.311C17.6402 23.9039 17.4084 23.7473 17.0264 23.9227C16.5879 24.1231 16.3123 24.4801 16.1182 24.9123C16.0743 24.9185 16.0493 24.906 16.0618 24.8559C16.1996 24.3423 16.4689 23.9227 16.9136 23.622C17.0264 23.5469 17.1516 23.503 17.2769 23.478C17.4836 23.4341 17.6903 23.5594 17.7404 23.7661C17.8093 24.0103 17.7717 24.2797 17.6276 24.4989Z" fill="#182144"/>
<path d="M21.2479 20.9662C21.1664 20.9036 21.2416 20.8785 21.2792 20.8472C21.4107 20.7532 21.4859 20.5904 21.6487 20.5403C21.8617 20.8785 22.1999 21.0288 22.5569 21.1541C22.6258 21.1791 22.7009 21.1979 22.8199 21.2292C22.275 21.3733 21.8053 21.3169 21.3731 21.0226C21.3418 20.985 21.298 20.9662 21.2479 20.9662Z" fill="#458CCA"/>
<path d="M40.6078 21.893C40.4324 21.8742 40.3071 21.7552 40.1506 21.6989C40.0879 21.6738 40.0315 21.5987 39.9689 21.6488C39.9188 21.6926 40.0002 21.7552 39.9814 21.8179C39.8875 21.7365 39.8499 21.6112 39.7998 21.4922C40.0817 21.6049 40.3572 21.7177 40.6078 21.893Z" fill="#63657D"/>
<path d="M44.4471 24.5364C44.4972 24.5051 44.4471 24.4675 44.4534 24.4299L44.7227 24.5803L44.8668 24.7681C44.6914 24.718 44.5724 24.6178 44.4471 24.5364Z" fill="#263154"/>
<path d="M33.6556 20.8285C33.7809 20.8097 33.9124 20.8223 34.0314 20.8536C33.8811 20.9413 33.7809 20.9287 33.6556 20.8285Z" fill="#A09AA9"/>
<path d="M15.6548 42.5684C15.7988 42.5934 15.8677 42.7375 15.9867 42.8001L15.9805 42.8565C15.8489 42.7938 15.7362 42.6936 15.6548 42.5684Z" fill="#424A7F"/>
<path d="M45.4868 33.593L45.5682 33.6431C45.5808 33.7371 45.5369 33.8185 45.4868 33.9312V33.593Z" fill="#8CB7DE"/>
<path d="M33.6427 13.7261C33.674 13.795 33.7491 13.7699 33.7992 13.7887L33.5487 13.8889C33.5299 13.7824 33.5925 13.7574 33.6427 13.7261Z" fill="#5A5D76"/>
<path d="M16.0682 24.8557L16.1245 24.9121C16.112 24.9559 16.0932 25.006 16.0807 25.0499L15.9805 25.1814C16.0055 25.0248 16.0118 24.9309 16.0682 24.8557Z" fill="#4F668A"/>
<path d="M27.7301 17.5404C27.7175 17.5028 27.7238 17.4527 27.6737 17.4339C27.6862 17.3964 27.7301 17.3463 27.7489 17.365C27.8052 17.4214 27.7802 17.484 27.7301 17.5404Z" fill="#555A73"/>
<path d="M11.8966 24.9998C11.9592 24.6616 12.0281 24.3234 12.1785 24.0102C12.7296 23.6219 13.2182 23.1584 13.7317 22.7262C14.6211 21.9746 15.5105 21.2231 16.3936 20.4652C17.2016 19.7762 18.0096 19.0873 18.8238 18.3983C19.7007 17.653 20.5775 16.9077 21.4544 16.1623C22.2498 15.4859 23.0515 14.8095 23.847 14.1268C24.4044 13.6507 24.9743 13.181 25.5192 12.6925C25.8136 12.6236 26.108 12.586 26.4086 12.5985C26.4337 12.5735 26.4713 12.5735 26.5026 12.586C26.5715 12.6987 26.4838 12.7614 26.4149 12.824C25.657 13.4628 24.9054 14.108 24.1476 14.7531C23.3396 15.4358 22.5379 16.1185 21.73 16.8074C20.9846 17.44 20.2456 18.0726 19.5002 18.7052C18.5983 19.4756 17.6901 20.2397 16.782 21.0101C15.6546 21.9621 14.5334 22.9267 13.4061 23.8787C12.9676 24.2482 12.5417 24.624 12.097 24.981C12.0595 25.0249 11.9843 25.1689 11.8966 24.9998Z" fill="#6D9CD2"/>
<path d="M25.5194 12.6925C25.438 12.9556 25.1875 13.0558 25.0058 13.2186C24.4108 13.7447 23.797 14.2521 23.1957 14.7657C22.5193 15.3356 21.8366 15.9056 21.1602 16.4818C20.5714 16.9829 19.9952 17.4902 19.4065 17.9912C18.8365 18.4735 18.2603 18.9495 17.6903 19.4381C17.1204 19.9266 16.5567 20.4151 15.9867 20.8974C15.4167 21.3797 14.8468 21.862 14.2706 22.3442C13.8008 22.7451 13.3373 23.1459 12.8676 23.5468C12.6797 23.7096 12.4855 23.8662 12.2914 24.0228C12.2475 24.0541 12.2099 24.0729 12.1724 24.0228C12.2413 23.6971 12.3477 23.3777 12.4981 23.0833C12.9302 22.8077 13.2935 22.4507 13.6818 22.125C14.5712 21.3734 15.4606 20.6218 16.3437 19.864C17.2582 19.0811 18.1789 18.2981 19.0933 17.5215C19.8511 16.8764 20.609 16.2375 21.3606 15.5924C22.3439 14.7594 23.321 13.9138 24.3106 13.0871C24.3858 13.037 24.4421 12.9681 24.4735 12.8929C24.8179 12.7551 25.1749 12.7614 25.5194 12.6925Z" fill="#729FD4"/>
<path d="M24.4861 12.8801C24.6301 12.9177 24.5111 12.9741 24.4861 12.9991C24.223 13.2371 23.9537 13.4751 23.6781 13.7069C23.2021 14.1077 22.7261 14.5086 22.2501 14.9094C21.5548 15.4919 20.8596 16.0807 20.1644 16.6694C19.5944 17.1517 19.0307 17.6465 18.4608 18.1288C17.872 18.6298 17.2833 19.1246 16.6945 19.6194C16.1246 20.1017 15.5609 20.5902 14.9909 21.0788C14.421 21.561 13.851 22.0433 13.281 22.5256C13.0744 22.701 12.8677 22.8763 12.6547 23.0517C12.6109 23.083 12.567 23.1644 12.5044 23.0768C12.567 22.7573 12.7361 22.4755 12.8802 22.1874C13.6506 21.5297 14.4272 20.8721 15.2039 20.2082C15.9993 19.5255 16.801 18.849 17.5964 18.1726C18.3606 17.5212 19.1184 16.8761 19.8825 16.231C20.6842 15.5483 21.4922 14.8593 22.2939 14.1766C22.7073 13.8259 23.1144 13.4563 23.5466 13.1119C23.8409 12.9741 24.1666 12.9365 24.4861 12.8801Z" fill="#78A2D5"/>
<path d="M23.5463 13.1121C23.2456 13.5004 22.8448 13.7697 22.4815 14.0891C22.0055 14.5025 21.5232 14.9096 21.0409 15.3167C20.5712 15.7113 20.1014 16.1059 19.6317 16.5068C19.162 16.9076 18.6985 17.3085 18.2287 17.703C17.759 18.1039 17.2767 18.5047 16.8007 18.9056C16.3372 19.3002 15.88 19.6948 15.4165 20.0894C14.8278 20.5904 14.239 21.0852 13.6503 21.58C13.4436 21.7554 13.2306 21.9308 13.0239 22.1061C12.9864 22.1437 12.9363 22.1688 12.8799 22.175C13.0302 21.7804 13.2181 21.4046 13.4436 21.0476C14.5146 20.177 15.5606 19.2689 16.6128 18.3732C17.8341 17.3335 19.0555 16.3063 20.2706 15.2604C20.9533 14.6716 21.6673 14.1079 22.3312 13.4879C22.7195 13.3313 23.1266 13.206 23.5463 13.1121Z" fill="#7DA5D6"/>
<path d="M22.3252 13.4944C22.3753 13.5758 22.2876 13.6009 22.25 13.6384C21.7302 14.0957 21.2041 14.5466 20.6779 14.9976C20.2145 15.3922 19.751 15.7805 19.2875 16.1751C18.7113 16.6636 18.135 17.1521 17.5588 17.6344C17.0891 18.0353 16.6256 18.4361 16.1559 18.8307C15.5671 19.3318 14.9784 19.8266 14.3959 20.3214C14.1516 20.5281 13.9073 20.741 13.6693 20.9477C13.6067 21.0103 13.5253 21.0479 13.4438 21.0604C13.732 20.4779 14.0827 19.9268 14.4773 19.4195C14.8406 19.1501 15.1725 18.8432 15.517 18.5551C16.4126 17.7973 17.302 17.0394 18.1914 16.2815C18.8804 15.6928 19.5693 15.104 20.2583 14.5216C20.3648 14.4339 20.4963 14.3712 20.5777 14.2522C21.1289 13.9078 21.7302 13.7073 22.3252 13.4944Z" fill="#81A7D8"/>
<path d="M32.2335 34.4447C31.7638 34.8331 31.294 35.2277 30.6677 35.497C30.8494 35.1337 30.9871 34.7517 31.0811 34.3571C31.4506 32.7286 31.1061 31.2442 30.1479 29.8976C29.9099 29.5657 29.5904 29.3089 29.3086 29.0145C29.2647 28.9644 29.2146 28.908 29.1332 28.9456C29.0455 28.9017 29.0079 28.8203 28.9453 28.7577C28.9829 28.7076 29.0267 28.7326 29.0706 28.7577C30.2042 29.4028 31.15 30.2358 31.7325 31.4321C32.0143 32.0209 32.1897 32.6597 32.2461 33.3111C32.2836 33.6869 32.2774 34.069 32.2335 34.4447Z" fill="#0E1F66"/>
<path d="M11.8967 25.0001C12.0846 25.069 12.1472 24.8811 12.2412 24.8059C13.1932 24.0167 14.1327 23.215 15.0722 22.4071C15.9616 21.6492 16.8384 20.8851 17.7278 20.1272C18.7174 19.288 19.7133 18.4549 20.7091 17.6157C21.5985 16.8578 22.4816 16.0937 23.371 15.3358C24.3293 14.5216 25.2876 13.7011 26.2521 12.8806C26.3523 12.7992 26.4901 12.7554 26.5089 12.5988C26.5653 12.5487 26.6405 12.605 26.6968 12.5549H26.9348C26.8659 12.8055 26.6217 12.8931 26.4526 13.0435C25.964 13.4819 25.4567 13.8953 24.9619 14.3149C24.3919 14.7972 23.8157 15.2795 23.2458 15.7617C22.7823 16.1563 22.3251 16.5509 21.8616 16.9455C21.1789 17.5217 20.4899 18.0979 19.8135 18.6804C19.35 19.075 18.8928 19.4696 18.4293 19.8642C17.8405 20.3652 17.2518 20.86 16.663 21.3548C16.1996 21.7494 15.7423 22.144 15.2789 22.5386C14.8028 22.9395 14.3268 23.3403 13.8508 23.7412C13.3748 24.142 12.9051 24.5554 12.4291 24.9562C12.2662 25.094 12.0908 25.2318 11.9217 25.3696C11.8842 25.4009 11.8466 25.426 11.8027 25.3696C11.8027 25.2506 11.8341 25.1191 11.8967 25.0001Z" fill="#699AD1"/>
<path d="M20.5838 14.2393C20.5462 14.4647 20.327 14.5211 20.1892 14.6464C19.7069 15.0785 19.2121 15.4857 18.7173 15.9053C18.1411 16.3938 17.5649 16.8761 16.9886 17.3646C16.5251 17.7592 16.0679 18.1538 15.6044 18.5484C15.2662 18.8365 14.9343 19.1246 14.5961 19.4127C14.5585 19.444 14.5209 19.4691 14.4771 19.4127C14.7213 19.0369 14.9969 18.6799 15.2975 18.3417C16.3999 17.0577 17.6588 15.9429 19.0994 15.0472C19.5816 14.7528 20.0576 14.4459 20.5838 14.2393Z" fill="#88ABD9"/>
<path d="M28.7139 12.5547C28.5573 12.5359 28.3945 12.6048 28.2441 12.5108C28.4007 12.5296 28.5636 12.4607 28.7139 12.5547Z" fill="#5591CD"/>
<path d="M26.6907 12.5547C26.6406 12.6236 26.5654 12.5923 26.5028 12.5986H26.4088C26.4965 12.5172 26.5967 12.5673 26.6907 12.5547Z" fill="#689AD1"/>
<path d="M22.1812 45.2487C23.7157 45.3176 25.2439 45.0734 26.6782 44.541C28.0749 44.0337 29.3777 43.3009 30.5364 42.3676C31.67 41.4469 32.6471 40.3947 33.2985 39.0731C33.6492 38.3654 33.8684 37.6013 33.9373 36.8184C34 36.1106 33.881 35.4404 33.6868 34.7765C33.7056 34.6137 33.8559 34.5385 33.9436 34.4258C34.2818 33.9811 34.5261 33.5051 34.6326 32.9539C34.6513 32.8788 34.6764 32.8099 34.7077 32.741C34.9207 33.1669 35.0898 33.6116 35.2088 34.0688C35.3716 34.7139 35.4656 35.3715 35.4155 36.0355C35.3278 37.1879 34.9833 38.309 34.4071 39.3111C33.8309 40.3258 33.0918 41.1901 32.24 41.9668C31.4884 42.637 30.6616 43.2194 29.7723 43.6892C28.7012 44.2717 27.5613 44.7038 26.3713 44.9857C25.6322 45.1611 24.8744 45.2675 24.1165 45.3114C23.747 45.3302 23.3837 45.3615 23.0204 45.3427C22.7511 45.3176 22.463 45.3364 22.1812 45.2487Z" fill="#0E1F66"/>
</svg>
