<svg width="57" height="57" viewBox="0 0 57 57" fill="none" xmlns="http://www.w3.org/2000/svg">
<rect x="0.665039" y="0.5" width="56" height="56" rx="28" fill="white"/>
<g clip-path="url(#clip0_529_2832)">
<mask id="mask0_529_2832" style="mask-type:luminance" maskUnits="userSpaceOnUse" x="9" y="9" width="39" height="39">
<path d="M47.6672 9.29529H9.66724V47.2953H47.6672V9.29529Z" fill="white"/>
</mask>
<g mask="url(#mask0_529_2832)">
<path d="M30.0146 47.2953H28.6672C18.1739 47.2953 9.66724 38.7887 9.66724 28.2953C9.66724 17.8019 18.1739 9.29529 28.6672 9.29529C39.1606 9.29529 47.6672 17.8019 47.6672 28.2953C47.6672 29.2348 47.5989 30.1591 47.4669 31.0632H44.8073C44.9603 30.1642 45.0401 29.2394 45.0401 28.2953C45.0401 19.2528 37.7097 11.9224 28.6672 11.9224C19.6247 11.9224 12.2944 19.2528 12.2944 28.2953C12.2944 37.3378 19.6247 44.6681 28.6672 44.6681H38.4051C35.9184 46.1503 33.0655 47.0821 30.0146 47.2953Z" fill="black"/>
<path d="M42.0452 41.8533H28.6674C21.1795 41.8533 15.1094 35.7832 15.1094 28.2953C15.1094 20.8074 21.1795 14.7373 28.6674 14.7373C36.1553 14.7373 42.2254 20.8074 42.2254 28.2953C42.2254 29.2431 42.128 30.169 41.9424 31.0632H39.2451C39.4755 30.1801 39.5983 29.2528 39.5983 28.2953C39.5983 22.2584 34.7043 17.3645 28.6674 17.3645C22.6305 17.3645 17.7365 22.2584 17.7365 28.2953C17.7365 34.3323 22.6305 39.2262 28.6674 39.2262H44.2675C43.6063 40.168 42.862 41.0473 42.0452 41.8533Z" fill="black"/>
<path d="M45.9035 36.4115H28.6674C24.185 36.4115 20.5513 32.7779 20.5513 28.2955C20.5513 23.8132 24.185 20.1794 28.6674 20.1794C33.1497 20.1794 36.7834 23.8132 36.7834 28.2955C36.7834 29.2667 36.6124 30.1991 36.2988 31.0634H33.4086C33.884 30.2513 34.1562 29.3066 34.1562 28.2955C34.1562 25.2641 31.6988 22.8067 28.6674 22.8067C25.6359 22.8067 23.1785 25.2641 23.1785 28.2955C23.1785 31.327 25.6359 33.7844 28.6674 33.7844H46.9115C46.6393 34.6904 46.3015 35.5679 45.9035 36.4115Z" fill="black"/>
</g>
</g>
<defs>
<clipPath id="clip0_529_2832">
<rect width="38" height="38" fill="white" transform="translate(9.66675 9.29468)"/>
</clipPath>
</defs>
</svg>
