<svg width="57" height="57" viewBox="0 0 57 57" fill="none" xmlns="http://www.w3.org/2000/svg">
<rect x="0.664795" y="0.5" width="56" height="56" rx="28" fill="white"/>
<g clip-path="url(#clip0_529_2857)">
<path d="M28.1653 51.2946C40.5917 51.2946 50.6653 41.221 50.6653 28.7946C50.6653 16.3681 40.5917 6.29456 28.1653 6.29456C15.7389 6.29456 5.66528 16.3681 5.66528 28.7946C5.66528 41.221 15.7389 51.2946 28.1653 51.2946Z" fill="url(#paint0_linear_529_2857)"/>
<path d="M17.0913 35.5448V24.9548L25.1223 30.9991V35.5448H27.172V30.5723C27.1716 30.3875 27.1284 30.2054 27.0458 30.0401C26.9632 29.8748 26.8434 29.731 26.6958 29.6198L16.9563 22.2871C16.7781 22.1548 16.5668 22.0744 16.3457 22.055C16.1247 22.0356 15.9026 22.0779 15.7041 22.1771C15.5056 22.2763 15.3386 22.4287 15.2215 22.6172C15.1044 22.8056 15.0418 23.0229 15.0408 23.2448V35.5448H17.0913ZM39.3018 35.5448V24.9548L31.2708 30.9991V35.5448H29.221V30.5723C29.2214 30.3875 29.2646 30.2054 29.3472 30.0401C29.4299 29.8748 29.5497 29.731 29.6973 29.6198L39.4368 22.2901C39.6147 22.1579 39.8258 22.0776 40.0466 22.0581C40.2674 22.0385 40.4892 22.0805 40.6876 22.1794C40.886 22.2783 41.0531 22.4302 41.1704 22.6182C41.2877 22.8063 41.3507 23.0232 41.3523 23.2448V35.5448H39.3018Z" fill="white"/>
</g>
<defs>
<linearGradient id="paint0_linear_529_2857" x1="28.1653" y1="6.29456" x2="28.1653" y2="51.2946" gradientUnits="userSpaceOnUse">
<stop stop-color="#4FA89B"/>
<stop offset="1" stop-color="#6ACEBB"/>
</linearGradient>
<clipPath id="clip0_529_2857">
<rect width="45" height="45" fill="white" transform="translate(5.6665 6.29468)"/>
</clipPath>
</defs>
</svg>
