<svg width="57" height="57" viewBox="0 0 57 57" fill="none" xmlns="http://www.w3.org/2000/svg">
<path d="M27.0559 0.547224C40.8465 -0.249919 53.1544 9.12448 56.048 22.6281C56.8372 26.3348 56.8691 30.169 56.1437 33.8917C54.3342 43.0748 48.0686 50.7433 39.4356 54.3544C33.5526 56.8255 26.8248 57.1683 20.7107 55.3508C12.3327 52.8557 5.58887 46.5982 2.48002 38.4274C0.248016 32.5684 0.0726451 25.9601 1.98579 19.9895C5.50916 8.94114 15.4814 1.20885 27.0559 0.547224Z" fill="white"/>
<path fill-rule="evenodd" clip-rule="evenodd" d="M38.6608 31.6241C38.7745 31.6241 38.8882 31.6241 38.8882 31.7378V36.1722C38.8882 36.2859 38.7745 36.3996 38.7745 36.3996L30.929 40.7203C29.792 41.4025 28.4276 41.4025 27.2906 40.7203L19.5588 36.2859C19.4451 36.2859 19.4451 36.1722 19.4451 36.0585V31.6241C19.4451 31.5104 19.5588 31.3967 19.6725 31.5104L28.0865 36.2859C28.7687 36.627 29.5646 36.627 30.1331 36.2859L38.6608 31.6241Z" fill="#1E2341"/>
<path fill-rule="evenodd" clip-rule="evenodd" d="M48.6666 25.143V44.1313C48.6666 44.245 48.5529 44.3587 48.4392 44.3587H44.5733C44.4596 44.3587 44.3459 44.245 44.3459 44.1313V25.143C44.3459 24.4608 43.55 24.006 42.8678 24.3471L30.8153 31.1692C29.6783 31.8514 28.3139 31.8514 27.1768 31.1692L15.1244 24.3471C14.4421 24.006 13.7599 24.4608 13.7599 25.143V44.1313C13.7599 44.245 13.6462 44.3587 13.5325 44.3587H9.89403C9.78033 44.3587 9.66663 44.245 9.66663 44.1313V25.143C9.66663 21.1634 13.8736 18.7756 17.2847 20.7086L28.0865 26.8485C28.7687 27.1896 29.5646 27.1896 30.1331 26.8485L40.9348 20.7086C44.4596 18.6619 48.6666 21.1634 48.6666 25.143Z" fill="#1E2341"/>
<path fill-rule="evenodd" clip-rule="evenodd" d="M38.6608 12.2947L30.1331 17.0702C29.4509 17.4113 28.655 17.4113 28.0865 17.0702L19.6725 12.2947C19.5588 12.2947 19.4451 12.2947 19.4451 12.4084V16.8428C19.4451 16.9565 19.5588 17.0702 19.5588 17.0702L27.2906 21.5046C28.4276 22.1868 29.792 22.1868 30.929 21.5046L38.7745 17.0702C38.8882 17.0702 38.8882 16.9565 38.8882 16.8428V12.4084C38.8882 12.2947 38.7745 12.2947 38.6608 12.2947Z" fill="#3D6CFF"/>
</svg>
