<svg width="56" height="59" viewBox="0 0 56 59" fill="none" xmlns="http://www.w3.org/2000/svg">
<rect width="56" height="58.1538" rx="28" fill="white"/>
<g clip-path="url(#clip0_4_9512)">
<path d="M17.6058 24.0133L28.0003 18.9205V5L17.6058 24.0133Z" fill="#FF596E"/>
<path d="M28 18.9205V30.0122L38.3944 24.0133L28 18.9205Z" fill="#FF596E"/>
<path d="M28.0003 18.9205V30.0122L17.6058 24.0133L28.0003 18.9205Z" fill="#800010"/>
<path d="M38.3944 24.0133L28 18.9205V5L38.3944 24.0133Z" fill="#800010"/>
<path d="M27.9987 34.294V46.1158L17.4045 28.1791L27.9987 34.294Z" fill="#FF596E"/>
<path d="M28 34.294V46.1158L38.5942 28.1791L28 34.294Z" fill="#800010"/>
<path d="M40.3437 30.8883L42.7437 38.0025L48 28.728L40.3437 30.8883Z" fill="#800010"/>
<path d="M42.743 38.0025L47.9993 36.3576V28.728L42.743 38.0025Z" fill="#FF596E"/>
<path d="M47.9975 36.3576L40.3412 49.87L34.5253 52.5L42.7412 38.0024L47.9975 36.3576Z" fill="#800010"/>
<path d="M8 36.3576L15.6563 49.87L21.4722 52.5L13.2563 38.0024L8 36.3576Z" fill="#FF596E"/>
<path d="M28 52.5L15.6571 30.8883L13.2571 38.0025L21.473 52.5H28Z" fill="#800010"/>
<path d="M15.6563 30.8883L13.2563 38.0025L8 28.728L15.6563 30.8883Z" fill="#FF596E"/>
<path d="M13.2563 38.0025L8 36.3576V28.728L13.2563 38.0025Z" fill="#800010"/>
<path d="M28 52.5L40.343 30.8883L42.743 38.0025L34.5271 52.5H28Z" fill="#FF596E"/>
</g>
<defs>
<clipPath id="clip0_4_9512">
<rect width="40" height="47.5" fill="white" transform="translate(8 5)"/>
</clipPath>
</defs>
</svg>
