<svg width="57" height="57" viewBox="0 0 57 57" fill="none" xmlns="http://www.w3.org/2000/svg">
<path d="M27.0563 0.547224C40.8469 -0.249919 53.1548 9.12448 56.0484 22.6281C56.8376 26.3348 56.8694 30.169 56.144 33.8917C54.3345 43.0748 48.069 50.7433 39.4359 54.3544C33.553 56.8255 26.8251 57.1683 20.711 55.3508C12.3331 52.8557 5.58924 46.5982 2.48038 38.4274C0.248382 32.5684 0.0730113 25.9601 1.98615 19.9895C5.50953 8.94114 15.4818 1.20885 27.0563 0.547224Z" fill="white"/>
<circle cx="29" cy="29" r="23" fill="url(#paint0_linear_529_3316)"/>
<path d="M39.0655 38.1644L31.2882 19.3613C30.8496 18.3891 30.1975 17.9149 29.338 17.9149H28.6503C27.7908 17.9149 27.1387 18.3891 26.7001 19.3613L23.3153 27.5536H20.7545C19.9898 27.5595 19.3673 28.176 19.3614 28.9466V28.9644C19.3673 29.7291 19.9898 30.3515 20.7545 30.3574H22.1297L18.899 38.1644C18.8398 38.3363 18.8042 38.5141 18.8042 38.6979C18.8042 39.1366 18.9405 39.4804 19.1836 39.7471C19.4266 40.0139 19.7764 40.1443 20.215 40.1443C20.5055 40.1384 20.7841 40.0495 21.0153 39.8775C21.2643 39.7056 21.4362 39.4567 21.5725 39.1721L25.1292 30.3515H27.5952C28.3599 30.3456 28.9823 29.7291 28.9882 28.9585V28.9229C28.9823 28.1582 28.3599 27.5358 27.5952 27.5299H26.2792L28.9941 20.7662L36.3921 39.1662C36.5284 39.4507 36.7003 39.6997 36.9493 39.8716C37.1805 40.0435 37.465 40.1324 37.7496 40.1384C38.1882 40.1384 38.532 40.008 38.781 39.7412C39.03 39.4745 39.1604 39.1306 39.1604 38.692C39.1663 38.5141 39.1367 38.3304 39.0655 38.1644Z" fill="white"/>
<defs>
<linearGradient id="paint0_linear_529_3316" x1="31.7505" y1="-2.54116" x2="-2.47353" y2="26.2548" gradientUnits="userSpaceOnUse">
<stop stop-color="#B6509E"/>
<stop offset="1" stop-color="#2EBAC6"/>
</linearGradient>
</defs>
</svg>
