<svg width="56" height="56" viewBox="0 0 56 56" fill="none" xmlns="http://www.w3.org/2000/svg">
<rect x="-0.00354004" width="56" height="56" rx="28" fill="white"/>
<path d="M27.9965 51C40.6994 51 50.9965 40.7029 50.9965 28C50.9965 15.2971 40.6994 5 27.9965 5C15.2936 5 4.99646 15.2971 4.99646 28C4.99646 40.7029 15.2936 51 27.9965 51Z" fill="#070A0E"/>
<path fill-rule="evenodd" clip-rule="evenodd" d="M18.2835 35.7119C17.5958 35.291 17.1749 34.5435 17.1749 33.7385V29.2443C17.1749 28.7107 17.6096 28.2783 18.1432 28.2806C18.3134 28.2806 18.4813 28.3266 18.6285 28.4117L28.7692 34.325C29.3626 34.67 29.7283 35.3048 29.7283 35.9925V40.6477C29.7306 41.2871 29.2131 41.8069 28.5737 41.8069C28.3598 41.8069 28.1482 41.7471 27.9665 41.6367L18.2835 35.7119ZM33.3991 27.1812C33.9925 27.5262 34.3559 28.1633 34.3582 28.8487V38.2971C34.3582 38.5754 34.2087 38.833 33.9649 38.9687L31.7454 40.2176C31.7178 40.2337 31.6879 40.2452 31.6557 40.2544V35.0081C31.6557 34.3296 31.2992 33.6994 30.715 33.3498L21.8094 28.023V22.1005C21.8094 21.5669 22.2441 21.1345 22.7777 21.1368C22.9479 21.1368 23.1158 21.1828 23.263 21.2679L33.3991 27.1812ZM37.8381 20.203C38.4338 20.548 38.7995 21.1851 38.7995 21.8728V35.6728C38.7972 35.9557 38.6408 36.2156 38.3924 36.3513L36.2879 37.4875V27.8804C36.2879 27.2019 35.9314 26.574 35.3518 26.2244L26.2484 20.7642V15.1476C26.2484 14.9774 26.2944 14.8095 26.3772 14.6623C26.6463 14.2023 27.2374 14.0459 27.6974 14.3127L37.8381 20.203Z" fill="#00D395"/>
<rect x="4.99646" y="5" width="46" height="46" fill="black" style="mix-blend-mode:saturation"/>
</svg>
