<svg width="57" height="57" viewBox="0 0 57 57" fill="none" xmlns="http://www.w3.org/2000/svg">
<rect x="0.335083" y="0.5" width="56" height="56" rx="28" fill="white"/>
<g clip-path="url(#clip0_772_30422)">
<path d="M28.3351 51.5C41.0376 51.5 51.3351 41.2025 51.3351 28.5C51.3351 15.7975 41.0376 5.5 28.3351 5.5C15.6325 5.5 5.33508 15.7975 5.33508 28.5C5.33508 41.2025 15.6325 51.5 28.3351 51.5Z" fill="#0B0609"/>
<path d="M27.2727 25.8096C27.0053 26.0533 26.7465 26.3077 26.4653 26.5345C26.359 26.6034 26.2337 26.6373 26.1072 26.6314C22.3845 26.6362 18.6618 26.639 14.9391 26.64C14.6708 26.6405 14.5746 26.5498 14.6033 26.2926C14.6162 26.1765 14.5767 26.0474 14.6145 25.9435C14.667 25.8477 14.7422 25.7662 14.8336 25.7063C14.8616 25.683 14.9248 25.7016 14.9719 25.7016C18.9774 25.7014 22.9828 25.7013 26.9882 25.7012C27.0577 25.7012 27.1272 25.7012 27.1967 25.7012L27.2727 25.8096Z" fill="#F46825"/>
<path d="M27.3477 22.5694C27.2237 22.5694 27.0998 22.5694 26.9758 22.5694C23.017 22.5687 19.0582 22.568 15.0993 22.5672C14.6578 22.5671 14.4204 22.1781 14.626 21.7823C14.6453 21.7553 14.6697 21.7324 14.6978 21.7149C14.726 21.6975 14.7574 21.6858 14.7901 21.6806C14.8955 21.6689 15.0016 21.666 15.1074 21.6719C18.7128 21.6709 22.3182 21.6782 25.9235 21.6592C26.3848 21.6567 26.742 21.7513 27.0286 22.1189C27.1265 22.2445 27.2835 22.3243 27.4135 22.4251L27.3477 22.5694Z" fill="#F46825"/>
<path d="M27.4464 20.3712C27.145 20.6562 26.9081 20.9002 26.6474 21.1154C26.5421 21.1864 26.417 21.222 26.2901 21.2171C22.5095 21.2214 18.7289 21.2168 14.9483 21.2242C14.6527 21.2248 14.5659 21.1069 14.6062 20.8469C14.6387 20.6374 14.4641 20.3232 14.9056 20.3238C19.016 20.3286 23.1264 20.3297 27.2368 20.3269C27.3075 20.3373 27.3775 20.3521 27.4464 20.3712Z" fill="#F46825"/>
<path d="M27.2773 17.1743C27.0978 17.1826 26.9845 17.1924 26.8713 17.1925C22.9473 17.1929 19.0233 17.1916 15.0992 17.1886C14.9435 17.1884 14.671 17.168 14.6535 17.1031C14.5946 16.8853 14.617 16.6425 14.6332 16.4109C14.636 16.3706 14.7561 16.3201 14.828 16.3072C14.9333 16.2953 15.0395 16.2926 15.1453 16.2993C18.6922 16.2987 22.2394 16.3229 25.7858 16.2777C26.5229 16.2683 26.8325 16.7049 27.2773 17.1743Z" fill="#F46825"/>
<path d="M30.1847 25.7011C30.3004 25.7011 30.4161 25.7011 30.5318 25.7011C34.0191 25.7014 37.5064 25.703 40.9937 25.7058C41.1349 25.7061 41.3895 25.7454 41.398 25.7977C41.4297 26.051 41.4296 26.3073 41.3975 26.5605C41.3946 26.5926 41.2359 26.6316 41.1493 26.6317C37.8387 26.6354 34.5281 26.6349 31.2175 26.6301C31.1027 26.6269 30.9923 26.5855 30.9038 26.5123C30.6412 26.2794 30.3967 26.0263 30.1452 25.781L30.1847 25.7011Z" fill="#F46825"/>
<path d="M25.9383 27.0429C25.478 27.5681 25.1198 27.974 24.3617 27.9608C21.2759 27.9071 18.1887 27.9387 15.102 27.9382C14.6598 27.9381 14.4202 27.5455 14.6263 27.1507C14.6659 27.0967 14.7251 27.0605 14.7911 27.0498C14.8847 27.0389 14.979 27.0368 15.073 27.0434C18.5485 27.0431 22.0239 27.043 25.4994 27.0429C25.6166 27.0429 25.7338 27.0429 25.9383 27.0429Z" fill="#F46825"/>
<path d="M25.9415 15.8481C25.7499 15.8481 25.6447 15.8481 25.5394 15.8481C22.0386 15.8479 18.5378 15.8461 15.037 15.8429C14.8986 15.8426 14.6532 15.7972 14.6412 15.7365C14.601 15.5072 14.6039 15.2724 14.6496 15.0441C14.659 14.9925 14.8728 14.9516 14.9928 14.9509C16.2893 14.9436 17.5859 14.9448 18.8825 14.9448C20.6978 14.9447 22.5146 14.9908 24.3274 14.9248C25.091 14.897 25.4789 15.2954 25.9415 15.8481Z" fill="#F46825"/>
<path d="M31.5285 27.0429C31.6317 27.0429 31.735 27.0429 31.8382 27.0429C34.9004 27.0431 37.9625 27.0476 41.0246 27.0368C41.3419 27.0357 41.4664 27.1111 41.4515 27.4458C41.4381 27.7455 41.4418 27.9492 41.0311 27.9469C38.2399 27.9308 35.4486 27.9426 32.6574 27.9284C32.4704 27.9274 32.2628 27.8172 32.1027 27.7043C31.8817 27.5305 31.6717 27.3434 31.4738 27.1438L31.5285 27.0429Z" fill="#F46825"/>
<path d="M34.163 25.2936C32.6921 25.2936 31.3319 25.2974 29.9719 25.2839C29.9187 25.2697 29.87 25.2422 29.8301 25.2042C29.7903 25.1661 29.7607 25.1187 29.744 25.0662C29.6473 24.3948 29.6862 24.3584 30.37 24.3584C31.169 24.3583 31.9685 24.3733 32.767 24.3513C33.0896 24.3424 33.327 24.4296 33.5332 24.6752C33.6977 24.8709 33.8982 25.0366 34.163 25.2936Z" fill="#F46825"/>
<path d="M24.0302 25.2945C24.2022 24.9916 24.3499 24.7109 24.5217 24.4458C24.5591 24.388 24.6827 24.3621 24.7668 24.3616C25.636 24.3559 26.5053 24.3628 27.3744 24.3556C27.5926 24.3538 27.6726 24.4472 27.6597 24.6506C27.656 24.7089 27.6599 24.7676 27.6599 24.8262C27.6594 25.2935 27.6594 25.2942 27.1992 25.2943C26.1427 25.2948 25.0864 25.2948 24.0302 25.2945Z" fill="#F46825"/>
<path d="M16.2134 25.2938C15.7662 25.2938 15.3188 25.2882 14.8717 25.2964C14.6735 25.3 14.6007 25.2228 14.6028 25.0263C14.6114 24.2238 14.5418 24.3682 15.2491 24.3604C15.9905 24.3523 16.7323 24.367 17.4735 24.3523C17.7387 24.347 17.8415 24.4394 17.8129 24.6981C17.8026 24.8034 17.8022 24.9094 17.8118 25.0147C17.829 25.231 17.73 25.3033 17.5198 25.2983C17.0846 25.288 16.6489 25.2952 16.2134 25.2952V25.2938Z" fill="#F46825"/>
<path d="M24.2025 23.0137C24.6069 23.0137 25.0361 23.0136 25.4653 23.0137C26.0876 23.0139 26.7101 23.0222 27.3323 23.0107C27.5752 23.0062 27.6616 23.0924 27.6655 23.3353C27.6746 23.8981 27.685 23.9095 27.1268 23.9228C26.3522 23.9412 25.5772 23.9363 24.8026 23.95C24.5851 23.9539 24.5041 23.8801 24.4693 23.6537C24.4365 23.4407 24.3028 23.2431 24.2025 23.0137Z" fill="#F46825"/>
<path d="M16.1894 23.9189C15.767 23.9189 15.3445 23.9115 14.9223 23.9217C14.6757 23.9276 14.5792 23.8245 14.6033 23.5849C14.6137 23.4805 14.5735 23.3598 14.6136 23.2727C14.6598 23.1724 14.7679 23.0298 14.8516 23.0281C15.7554 23.0098 16.6594 23.009 17.5636 23.0259C17.6474 23.0275 17.7418 23.1755 17.805 23.2725C17.8372 23.3221 17.8115 23.4094 17.8115 23.4797C17.8115 23.9463 17.8115 23.9467 17.3521 23.9474C16.9646 23.948 16.5771 23.948 16.1896 23.9475L16.1894 23.9189Z" fill="#F46825"/>
<path d="M16.2143 18.5287C15.7798 18.5287 15.3451 18.5206 14.9109 18.532C14.6861 18.5379 14.5793 18.4638 14.6034 18.2297C14.6124 18.1246 14.6126 18.0189 14.6041 17.9138C14.5919 17.7263 14.6647 17.6282 14.8631 17.6265C15.7554 17.619 16.6476 17.609 17.5397 17.5964C17.7316 17.5936 17.8246 17.6678 17.8118 17.8659C17.8026 17.9828 17.803 18.1002 17.8131 18.2169C17.8389 18.4696 17.7196 18.5421 17.4824 18.5348C17.0601 18.5218 16.637 18.5312 16.2143 18.5312L16.2143 18.5287Z" fill="#F46825"/>
<path d="M24.0261 17.6242C24.3549 17.6242 24.6212 17.6241 24.8875 17.6242C25.6764 17.6245 26.4658 17.6411 27.254 17.6184C27.6326 17.6075 27.6683 17.7949 27.6671 18.0951C27.666 18.3841 27.6313 18.5508 27.2681 18.5386C26.4683 18.5118 25.667 18.5262 24.8664 18.5338C24.6432 18.5359 24.5111 18.5089 24.4525 18.2371C24.4103 18.0413 24.2115 17.879 24.0261 17.6242Z" fill="#F46825"/>
<path d="M24.2089 19.8896C24.3144 19.6228 24.3883 19.3986 24.4929 19.1898C24.5347 19.1063 24.6434 19.0013 24.723 19.0001C25.6268 18.9873 26.5306 18.988 27.4346 19.0023C27.4843 19.0159 27.5298 19.0416 27.5672 19.0771C27.6045 19.1127 27.6324 19.1569 27.6485 19.2058C27.7621 19.7819 27.6686 19.8888 27.0908 19.8893C26.2337 19.89 25.3767 19.8901 24.5197 19.8896C24.4058 19.8896 24.292 19.8896 24.2089 19.8896Z" fill="#F46825"/>
<path d="M31.3786 23.0158C31.7662 23.0159 32.1553 23.0377 32.5408 23.0094C32.8802 22.9845 32.9873 23.1199 32.9429 23.4322C32.9351 23.5021 32.9347 23.5727 32.9419 23.6427C32.9565 23.8384 32.8627 23.9194 32.672 23.9189C31.7794 23.9169 30.8869 23.9167 29.9943 23.9185C29.7966 23.9188 29.7232 23.8177 29.732 23.6316C29.738 23.5146 29.7378 23.3973 29.7314 23.2804C29.7199 23.083 29.8111 23.0104 30.0045 23.0133C30.4625 23.0204 30.9206 23.0156 31.3786 23.0158Z" fill="#F46825"/>
<path d="M31.3337 22.5685C30.9094 22.5685 30.485 22.5606 30.061 22.5715C29.8214 22.5777 29.729 22.4927 29.7265 22.245C29.7209 21.6707 29.7097 21.6705 30.2986 21.6707C31.0646 21.6709 31.831 21.687 32.5964 21.6652C32.9324 21.6557 32.9607 21.8226 32.9429 22.0769C32.9266 22.3101 33.0266 22.5945 32.6062 22.5719C32.1831 22.5492 31.7579 22.5669 31.3337 22.5669L31.3337 22.5685Z" fill="#F46825"/>
<path d="M31.3204 15.8467C30.8964 15.8472 30.4721 15.8393 30.0484 15.8505C29.8277 15.8563 29.7115 15.7911 29.7335 15.5525C29.7443 15.4361 29.7028 15.3032 29.7461 15.2044C29.7908 15.1025 29.9082 14.9617 29.9962 14.96C30.891 14.9426 31.786 14.9431 32.6812 14.9615C32.7688 14.9633 32.8903 15.1033 32.9293 15.2047C32.9727 15.3174 32.9323 15.4598 32.9414 15.5884C32.956 15.7952 32.8508 15.8512 32.6631 15.8484C32.2156 15.8418 31.768 15.8463 31.3204 15.8467Z" fill="#F46825"/>
<path d="M31.329 21.2198C30.8931 21.2198 30.4572 21.2142 30.0215 21.2222C29.8109 21.226 29.6911 21.1394 29.738 20.933C29.785 20.7262 29.5496 20.3549 29.9502 20.3396C30.8793 20.304 31.8109 20.3252 32.7412 20.3408C32.8087 20.342 32.9075 20.4749 32.9317 20.5629C32.9649 20.6831 32.9334 20.8196 32.9422 20.9482C32.9558 21.1469 32.8658 21.2218 32.6719 21.2192C32.2243 21.2132 31.7766 21.2173 31.329 21.2173V21.2198Z" fill="#F46825"/>
<path d="M31.3599 19.888C30.9239 19.888 30.4875 19.8761 30.0521 19.8913C29.6259 19.9063 29.7513 19.6025 29.732 19.3795C29.7115 19.1429 29.7415 18.9775 30.0602 18.9845C30.9199 19.0034 31.7803 18.9976 32.6403 18.9894C32.8721 18.9872 32.9439 19.0724 32.9457 19.2996C32.9503 19.8847 32.9601 19.885 32.3849 19.8863C32.0432 19.8871 31.7015 19.8865 31.3599 19.8865V19.888Z" fill="#F46825"/>
<path d="M16.2028 18.9892C16.627 18.9892 17.0516 19.0014 17.475 18.9847C17.7423 18.9742 17.819 19.0785 17.8168 19.3344C17.8121 19.8899 17.8239 19.8906 17.256 19.8902C16.4902 19.8896 15.7238 19.8693 14.9589 19.8937C14.5194 19.9077 14.6228 19.6254 14.6017 19.3801C14.5779 19.1035 14.6544 18.9686 14.9661 18.9862C15.3772 19.0093 15.7905 18.9919 16.2028 18.9919V18.9892Z" fill="#F46825"/>
<path d="M31.3569 18.5293C30.9109 18.5293 30.4646 18.5225 30.0188 18.5323C29.8055 18.5369 29.7155 18.4543 29.7313 18.2436C29.7388 18.1384 29.7389 18.0329 29.7318 17.9277C29.7187 17.7232 29.8025 17.6248 30.0156 17.6258C30.896 17.6296 31.7764 17.6299 32.6568 17.6266C32.8665 17.6258 32.9596 17.7136 32.9418 17.9238C32.9328 18.0172 32.933 18.1111 32.9423 18.2044C32.9693 18.4461 32.8743 18.5412 32.6246 18.5322C32.2025 18.5171 31.7795 18.5281 31.3569 18.5281V18.5293Z" fill="#F46825"/>
<path d="M31.3163 17.1925C30.8925 17.1925 30.4685 17.1848 30.045 17.1956C29.8225 17.2013 29.7105 17.1295 29.7322 16.8942C29.7405 16.7888 29.7409 16.6829 29.7334 16.5775C29.7221 16.3858 29.803 16.2986 30.0003 16.2994C30.8949 16.3033 31.7897 16.2948 32.6839 16.3127C32.7708 16.3145 32.8873 16.4533 32.9305 16.5538C32.9731 16.6531 32.9321 16.7853 32.942 16.9018C32.96 17.1134 32.8734 17.1981 32.6582 17.1935C32.211 17.184 31.7636 17.1906 31.3163 17.1906V17.1925Z" fill="#F46825"/>
<path d="M42.5612 34.4555C42.0891 34.9476 41.7766 35.3791 41.0419 35.3701C37.4596 35.3262 33.8766 35.351 30.2938 35.3513C29.8039 35.3513 29.5921 35.0421 29.7842 34.5934C29.8253 34.5278 29.8907 34.4812 29.9661 34.4637C30.0591 34.4484 30.1536 34.4448 30.2474 34.453C34.1956 34.4536 38.1437 34.4545 42.0918 34.4555C42.2164 34.4555 42.341 34.4555 42.5612 34.4555Z" fill="#F46825"/>
<path d="M42.5283 36.674C42.3636 36.6841 42.261 36.6958 42.1584 36.6959C38.1783 36.6975 34.1982 36.697 30.2181 36.6944C30.0773 36.6942 29.8297 36.6541 29.8151 36.5907C29.7778 36.3621 29.7732 36.1293 29.8014 35.8994C29.8036 35.864 29.9072 35.8158 29.9686 35.8074C30.0859 35.7966 30.2037 35.7938 30.3213 35.799C33.8539 35.7991 37.3869 35.8267 40.9189 35.7782C41.6713 35.7679 42.0889 36.1041 42.5283 36.674Z" fill="#F46825"/>
<path d="M27.1822 39.9427C26.9144 40.1866 26.6553 40.4413 26.3735 40.6679C26.2663 40.7356 26.1406 40.7682 26.014 40.7612C22.7169 40.766 19.4199 40.7644 16.1228 40.7565C15.9425 40.741 15.771 40.6718 15.6305 40.5577C15.3887 40.3756 15.1781 40.1523 14.9544 39.9463L15.0011 39.8652H27.106C27.1314 39.891 27.1568 39.9169 27.1822 39.9427Z" fill="#F46825"/>
<path d="M42.4003 31.3212C42.1931 31.3212 42.0761 31.3211 41.9591 31.3212C38.0702 31.322 34.1813 31.3227 30.2924 31.3235C29.7821 31.3236 29.6238 31.1063 29.7817 30.601C29.7999 30.5622 29.8263 30.5277 29.859 30.4999C29.8917 30.4721 29.93 30.4516 29.9713 30.4399C30.0875 30.4212 30.2056 30.4169 30.3229 30.427C33.8347 30.4272 37.3469 30.4532 40.8581 30.4075C41.5998 30.3978 41.9498 30.798 42.4003 31.3212Z" fill="#F46825"/>
<path d="M41.0134 29.9784C39.7305 29.9784 38.4477 29.9784 37.1648 29.9784C34.8453 29.9783 32.5258 29.9768 30.2063 29.9736C30.0677 29.9732 29.822 29.9283 29.8099 29.8676C29.7671 29.6395 29.7706 29.4051 29.8202 29.1784C29.8327 29.1202 30.0637 29.0807 30.1946 29.0802C31.9371 29.0732 33.6797 29.0743 35.4223 29.0742C36.8352 29.0742 38.2483 29.0895 39.6609 29.0667C40.0616 29.0603 40.3596 29.1649 40.6144 29.4694C40.7464 29.6271 40.9307 29.7413 41.0914 29.8751C41.0654 29.9096 41.0394 29.944 41.0134 29.9784Z" fill="#F46825"/>
<path d="M25.8232 41.2687C25.5673 41.5072 25.3211 41.7575 25.0499 41.9772C24.9401 42.0431 24.8125 42.0734 24.6848 42.0639C22.2684 42.0688 19.852 42.0717 17.4357 42.0591C17.254 42.0429 17.081 41.9738 16.9382 41.8603C16.7103 41.6785 16.4919 41.4851 16.2839 41.2809L16.3429 41.1978H25.7589L25.8232 41.2687Z" fill="#F46825"/>
<path d="M23.2238 39.3228C23.4967 39.069 23.7633 38.8079 24.0471 38.5668C24.1354 38.511 24.2392 38.4847 24.3434 38.4916C25.3102 38.4861 26.277 38.4936 27.2437 38.4839C27.4874 38.4814 27.5745 38.5675 27.581 38.8099C27.5975 39.4243 27.6067 39.4242 27.007 39.4242C25.7698 39.4243 24.5326 39.4243 23.2954 39.4242L23.2238 39.3228Z" fill="#F46825"/>
<path d="M18.8252 39.4234C17.4958 39.4234 16.1664 39.4213 14.837 39.4258C14.6446 39.4265 14.5491 39.3593 14.5576 39.1615C14.5646 39.056 14.5639 38.9502 14.5556 38.8448C14.5275 38.5693 14.6408 38.4782 14.9205 38.4829C15.8148 38.4982 16.7099 38.4999 17.6041 38.4814C17.7375 38.4722 17.8712 38.4942 17.9946 38.5456C18.118 38.597 18.2278 38.6764 18.3152 38.7776C18.5073 38.9633 18.7109 39.1367 18.9247 39.2968L18.8252 39.4234Z" fill="#F46825"/>
<path d="M41.2685 39.8314C41.6917 39.8316 42.115 39.8393 42.5379 39.8284C42.7553 39.8228 42.842 39.9097 42.8193 40.1192C42.8179 40.1426 42.8178 40.1661 42.8191 40.1895C42.8259 40.7641 42.8259 40.7643 42.2615 40.7644C41.4975 40.7645 40.7331 40.7523 39.9695 40.7706C39.6823 40.7775 39.583 40.6769 39.6154 40.4057C39.6257 40.3123 39.6257 40.2181 39.6156 40.1247C39.5915 39.8867 39.7073 39.8219 39.9285 39.8277C40.3749 39.8392 40.8218 39.8311 41.2685 39.8314Z" fill="#F46825"/>
<path d="M41.1848 39.4235C40.7732 39.4237 40.3612 39.4142 39.9499 39.4274C39.7173 39.4348 39.6065 39.3759 39.6116 39.1164C39.6262 38.3724 39.5669 38.4948 40.228 38.4895C40.9807 38.4834 41.7337 38.4983 42.4862 38.4839C42.7543 38.4788 42.8526 38.5747 42.8209 38.8314C42.8102 38.913 42.8102 38.9956 42.8211 39.0772C42.8639 39.3698 42.7225 39.4394 42.455 39.4281C42.0323 39.4104 41.6083 39.4234 41.1848 39.4235Z" fill="#F46825"/>
<path d="M31.3312 40.7645C30.9188 40.7646 30.506 40.7535 30.0942 40.7688C29.8474 40.778 29.7453 40.6874 29.7652 40.4438C29.7729 40.3265 29.7734 40.2089 29.7666 40.0916C29.7583 39.8921 29.857 39.8274 30.0479 39.8286C30.9197 39.8342 31.7916 39.8343 32.6634 39.829C32.8598 39.8277 32.9466 39.9038 32.9379 40.0983C32.9307 40.2156 32.9311 40.3333 32.9391 40.4506C32.9609 40.7022 32.8422 40.7761 32.6035 40.7682C32.1798 40.7542 31.7553 40.7643 31.3312 40.7645Z" fill="#F46825"/>
<path d="M31.3678 38.4879C31.7904 38.4884 32.2133 38.4975 32.6355 38.4849C32.8691 38.4779 32.9561 38.5747 32.9405 38.7962C32.9323 38.9013 32.9322 39.0069 32.9404 39.112C32.9622 39.3633 32.841 39.4306 32.6046 39.4277C31.7713 39.4175 30.9376 39.4151 30.1044 39.4292C29.8369 39.4337 29.7616 39.333 29.7602 39.081C29.7568 38.4876 29.7467 38.4876 30.3466 38.4875C30.687 38.4874 31.0274 38.4875 31.3678 38.4879Z" fill="#F46825"/>
<path d="M31.3558 32.6608C30.9316 32.6605 30.5071 32.6531 30.0831 32.6635C29.8626 32.6689 29.7681 32.5972 29.7594 32.3637C29.7366 31.7579 29.754 31.7288 30.3739 31.7274C31.1046 31.7257 31.8356 31.7382 32.5659 31.7213C32.8642 31.7145 32.9536 31.8241 32.9484 32.1105C32.9384 32.6602 32.9517 32.6606 32.4165 32.661C32.063 32.6614 31.7094 32.6613 31.3558 32.6608Z" fill="#F46825"/>
<path d="M39.1756 31.7783C39.3048 31.7686 39.4056 31.7545 39.5064 31.7544C40.4715 31.7537 41.437 31.7736 42.4014 31.7475C42.8022 31.7367 42.8256 31.9242 42.8286 32.2381C42.8316 32.5464 42.7657 32.6759 42.4213 32.6659C41.5982 32.6418 40.7738 32.6567 39.95 32.6622C39.7539 32.6635 39.6466 32.6377 39.5916 32.396C39.5444 32.1892 39.3443 32.017 39.1756 31.7783Z" fill="#F46825"/>
<path d="M39.3747 34.0135C39.4465 33.767 39.5309 33.5244 39.6276 33.2866C39.6551 33.2423 39.6924 33.205 39.7366 33.1774C39.7809 33.1498 39.8308 33.1327 39.8827 33.1274C40.7772 33.1167 41.6721 33.1156 42.5665 33.1341C42.6522 33.1359 42.7758 33.2749 42.8087 33.3742C42.8472 33.5105 42.8474 33.6547 42.8091 33.791C42.7865 33.8764 42.6767 34.0015 42.6052 34.0019C41.5238 34.0092 40.4422 33.9988 39.3606 33.9913C39.3544 33.9912 39.3483 33.9741 39.3747 34.0135Z" fill="#F46825"/>
<path d="M39.3889 37.1466C40.422 37.1466 41.481 37.1503 42.5398 37.1435C42.7583 37.1421 42.8383 37.2286 42.8211 37.4373C42.8114 37.554 42.8518 37.6857 42.8097 37.7856C42.7665 37.8885 42.652 38.0336 42.5661 38.0354C41.6716 38.0539 40.7765 38.0521 39.8818 38.0399C39.8295 38.0328 39.7795 38.0137 39.7358 37.9842C39.6921 37.9546 39.6557 37.9154 39.6296 37.8695C39.537 37.6328 39.4566 37.3915 39.3889 37.1466Z" fill="#F46825"/>
<path d="M31.3368 38.0771C30.9485 38.0771 30.5588 38.0569 30.1723 38.0832C29.8343 38.1062 29.7227 37.9691 29.762 37.6556C29.7697 37.5738 29.7705 37.4914 29.7644 37.4094C29.7558 37.2131 29.8514 37.1414 30.0432 37.1424C30.9139 37.1472 31.7847 37.1488 32.6554 37.142C32.8735 37.1402 32.9353 37.2357 32.9442 37.4382C32.9704 38.0323 32.9613 38.0489 32.3597 38.0501C32.0188 38.0507 31.6779 38.0507 31.3369 38.0502L31.3368 38.0771Z" fill="#F46825"/>
<path d="M26.0035 37.1441C26.403 37.1441 26.803 37.1559 27.2018 37.1399C27.4675 37.1293 27.5895 37.2086 27.5817 37.4939C27.564 38.1383 27.6752 38.0782 27.0023 38.0756C26.2505 38.0726 25.4986 38.0434 24.7472 38.0552C24.3435 38.0616 24.4081 37.805 24.401 37.5621C24.3942 37.3244 24.3835 37.1183 24.735 37.1394C25.1564 37.1648 25.5806 37.1454 26.0035 37.1454V37.1441Z" fill="#F46825"/>
<path d="M26.025 35.7998C26.4479 35.7998 26.8711 35.8079 27.2937 35.7966C27.5193 35.7906 27.6241 35.8709 27.6058 36.1011C27.5992 36.2064 27.5989 36.312 27.605 36.4173C27.6128 36.6041 27.5385 36.6993 27.3389 36.6984C26.4461 36.6942 25.5532 36.6935 24.6603 36.6964C24.4573 36.6969 24.4089 36.5926 24.4004 36.4096C24.3723 35.8018 24.3666 35.8019 24.9676 35.8014C25.3201 35.801 25.6725 35.801 26.025 35.8013V35.7998Z" fill="#F46825"/>
<path d="M41.2339 41.1732C41.6571 41.1732 42.0807 41.185 42.5033 41.1687C42.7559 41.1589 42.8461 41.2564 42.8205 41.497C42.8094 41.6014 42.851 41.7237 42.8094 41.8092C42.7602 41.9103 42.6484 42.0514 42.5613 42.0532C41.6683 42.0711 40.7747 42.0628 39.8814 42.0653C39.6845 42.0658 39.6062 41.973 39.6174 41.7829C39.6246 41.6658 39.6245 41.5484 39.617 41.4314C39.6036 41.2281 39.7034 41.1674 39.8938 41.1707C40.3404 41.1786 40.7872 41.1733 41.2339 41.1732Z" fill="#F46825"/>
<path d="M26.013 35.348C25.5903 35.348 25.1671 35.337 24.7449 35.3521C24.4854 35.3614 24.3961 35.2689 24.3982 35.0079C24.4025 34.4572 24.3899 34.4566 24.9553 34.4558C25.7186 34.4547 26.4826 34.4728 27.2451 34.4464C27.6423 34.4326 27.6014 34.6653 27.6081 34.9194C27.615 35.1812 27.6026 35.3788 27.2457 35.3563C26.8363 35.3305 26.4241 35.3503 26.013 35.3503V35.348Z" fill="#F46825"/>
<path d="M25.9774 34.015C25.5545 34.015 25.1315 34.0083 24.7089 34.0177C24.4816 34.0228 24.404 33.9325 24.3996 33.7065C24.3881 33.1225 24.3787 33.1223 24.9558 33.1217C25.731 33.1208 26.5066 33.1338 27.2813 33.1139C27.6392 33.1048 27.6111 33.32 27.6046 33.5485C27.5983 33.7746 27.6706 34.0385 27.281 34.0223C26.8471 34.0042 26.412 34.0181 25.9774 34.0181V34.015Z" fill="#F46825"/>
<path d="M16.1235 38.0481C15.7127 38.048 15.3015 38.0368 14.8912 38.0512C14.4826 38.0656 14.5676 37.7803 14.5571 37.546C14.547 37.3205 14.5484 37.1342 14.8752 37.1406C15.7199 37.1572 16.5654 37.1557 17.4103 37.1406C17.705 37.1353 17.7485 37.2878 17.7207 37.5126C17.6943 37.7267 17.8512 38.0488 17.4263 38.0482C16.9921 38.0476 16.5578 38.0476 16.1235 38.0481Z" fill="#F46825"/>
<path d="M25.963 29.976C25.5386 29.976 25.114 29.9684 24.6899 29.9791C24.4723 29.9847 24.408 29.8955 24.4017 29.6873C24.3833 29.0778 24.3755 29.0776 24.9812 29.0771C25.7239 29.0765 26.4669 29.0902 27.2092 29.0715C27.6297 29.0609 27.5631 29.3344 27.579 29.5907C27.5964 29.8711 27.507 29.9996 27.2006 29.983C26.7892 29.9607 26.3756 29.9775 25.963 29.9775V29.976Z" fill="#F46825"/>
<path d="M16.1206 35.3467C15.6969 35.3467 15.273 35.3389 14.8496 35.349C14.4711 35.3581 14.5681 35.0853 14.56 34.8812C14.5517 34.6728 14.5138 34.4489 14.8561 34.4536C15.7151 34.4655 16.5743 34.4612 17.4334 34.455C17.6461 34.4534 17.7171 34.5381 17.7252 34.7468C17.7484 35.3475 17.7563 35.3473 17.1445 35.348C16.8032 35.3483 16.4619 35.3483 16.1206 35.348V35.3467Z" fill="#F46825"/>
<path d="M16.1082 29.9761C15.6962 29.976 15.284 29.9675 14.8723 29.9793C14.647 29.9858 14.5616 29.9069 14.5554 29.6766C14.5395 29.0886 14.5388 29.0784 15.1154 29.0778C15.857 29.0769 16.5993 29.0973 17.3399 29.0704C17.7532 29.0553 17.7131 29.2966 17.725 29.5662C17.7376 29.8512 17.6809 30.0053 17.3437 29.9827C16.9336 29.9552 16.5202 29.9762 16.1082 29.9761Z" fill="#F46825"/>
<path d="M31.3486 33.1191C31.7719 33.119 32.1959 33.1334 32.6183 33.1143C32.9386 33.0999 32.9615 33.2865 32.942 33.5175C32.9242 33.7294 33.0422 34.0216 32.6449 34.0197C31.7866 34.0155 30.9281 34.0134 30.0698 34.0208C29.6753 34.0243 29.7773 33.7424 29.7641 33.5261C29.7505 33.3032 29.7503 33.1009 30.0788 33.1148C30.5014 33.1328 30.9253 33.1192 31.3486 33.1191Z" fill="#F46825"/>
<path d="M16.1131 34.0146C15.7011 34.0146 15.2886 34.0018 14.8773 34.0185C14.5191 34.033 14.5524 33.7977 14.5588 33.5727C14.5648 33.361 14.4901 33.112 14.8636 33.1183C15.7109 33.1326 16.5586 33.1271 17.4061 33.1193C17.6259 33.1173 17.7201 33.1824 17.7261 33.4181C17.7413 34.0148 17.7517 34.0148 17.1372 34.0157C16.7958 34.0162 16.4545 34.0163 16.1131 34.0158V34.0146Z" fill="#F46825"/>
<path d="M25.977 32.6574C25.5422 32.6574 25.1074 32.6522 24.6728 32.6598C24.4762 32.6632 24.3913 32.585 24.4035 32.3897C24.4103 32.2726 24.4105 32.1553 24.404 32.0383C24.3941 31.8476 24.4768 31.7567 24.6712 31.757C25.5407 31.7586 26.4102 31.7537 27.2797 31.7581C27.6933 31.7602 27.551 32.0829 27.576 32.3015C27.6032 32.5401 27.5242 32.675 27.2458 32.664C26.8234 32.6473 26.4 32.6596 25.977 32.6596L25.977 32.6574Z" fill="#F46825"/>
<path d="M16.1351 32.6574C15.7227 32.6576 15.3093 32.6403 14.8983 32.6633C14.589 32.6806 14.5351 32.5241 14.5591 32.2776C14.5809 32.0545 14.4554 31.7511 14.8758 31.755C15.724 31.7628 16.5723 31.7594 17.4206 31.7561C17.6223 31.7553 17.734 31.8267 17.7212 32.0438C17.7146 32.1612 17.7147 32.2788 17.7214 32.3961C17.7326 32.5973 17.6337 32.6626 17.4428 32.6594C17.007 32.6522 16.571 32.6571 16.1351 32.6574Z" fill="#F46825"/>
<path d="M25.9913 31.3207C25.5671 31.3207 25.1427 31.3132 24.7187 31.3238C24.4986 31.3292 24.3808 31.2637 24.4035 31.025C24.412 30.9195 24.4123 30.8136 24.4044 30.708C24.3926 30.5162 24.4727 30.4286 24.6706 30.4293C25.5426 30.4325 26.4146 30.429 27.2866 30.4294C27.6835 30.4296 27.5552 30.7328 27.5751 30.9424C27.596 31.1629 27.5609 31.3366 27.2638 31.3259C26.8401 31.3106 26.4155 31.322 25.9913 31.322V31.3207Z" fill="#F46825"/>
<path d="M16.1492 31.3207C15.7374 31.3208 15.3253 31.3106 14.9141 31.3246C14.6655 31.3331 14.5534 31.2635 14.5532 30.9916C14.5526 30.4304 14.5393 30.4299 15.1103 30.4296C15.8514 30.4292 16.5934 30.4506 17.3334 30.4217C17.737 30.4059 17.7209 30.6257 17.7266 30.9055C17.7322 31.1839 17.691 31.3505 17.3487 31.327C16.9506 31.2998 16.5492 31.3207 16.1492 31.3207Z" fill="#F46825"/>
<path d="M31.3433 41.173C31.7672 41.1732 32.1915 41.1848 32.6148 41.1688C32.8674 41.1592 32.9383 41.2611 32.9407 41.4986C32.9464 42.0652 32.9558 42.0657 32.3852 42.0665C31.6552 42.0675 30.9244 42.0477 30.1954 42.0757C29.8017 42.0909 29.7621 41.9052 29.7591 41.5863C29.7561 41.2704 29.8409 41.1408 30.1781 41.1661C30.5645 41.195 30.9547 41.1728 31.3433 41.173Z" fill="#F46825"/>
<path d="M16.1435 35.8024C16.5675 35.8023 16.9921 35.8169 17.4152 35.7977C17.754 35.7824 17.7312 35.9971 17.721 36.213C17.7107 36.4303 17.8102 36.7058 17.4115 36.7C16.5638 36.6875 15.716 36.6871 14.8679 36.6986C14.4713 36.7034 14.5702 36.4264 14.5579 36.209C14.5453 35.9867 14.5406 35.783 14.8719 35.7979C15.295 35.817 15.7196 35.8025 16.1435 35.8024Z" fill="#F46825"/>
</g>
<defs>
<clipPath id="clip0_772_30422">
<rect width="46" height="46" fill="white" transform="translate(5.33508 5.5)"/>
</clipPath>
</defs>
</svg>
