<svg width="56" height="56" viewBox="0 0 56 56" fill="none" xmlns="http://www.w3.org/2000/svg">
<path d="M55.9961 28C55.9961 12.536 43.4601 0 27.9961 0C12.5321 0 -0.00390625 12.536 -0.00390625 28C-0.00390625 43.464 12.5321 56 27.9961 56C43.4601 56 55.9961 43.464 55.9961 28Z" fill="white"/>
<path d="M27.9961 51C40.6987 51 50.9961 40.7026 50.9961 28.0001C50.9961 15.2975 40.6987 5 27.9961 5C15.2935 5 4.99609 15.2975 4.99609 28.0001C4.99609 40.7026 15.2935 51 27.9961 51Z" fill="black"/>
<path d="M30.9556 39.2169C30.7346 39.9972 30.2719 40.6874 29.6341 41.1884C28.9948 41.6878 28.2138 41.972 27.4029 42H22.0001L11 19H21.9861L27.4807 30.5054C27.4807 30.5054 31.4905 37.3263 30.9556 39.2169Z" fill="#CDADEE"/>
<path d="M30.9547 39.2171C31.4896 37.3266 27.4814 30.5104 27.4814 30.5104H33.4222L30.9547 39.2171Z" fill="url(#paint0_linear_349_433)"/>
<path d="M33.4229 30.5101H44.1509V19.0048H39.8658C39.0518 19.0052 38.2591 19.2644 37.602 19.7449C36.9449 20.2261 36.4582 20.9042 36.2121 21.6805L33.4229 30.5101Z" fill="#CDADEE"/>
<defs>
<linearGradient id="paint0_linear_349_433" x1="30.6252" y1="29.9009" x2="28.0597" y2="38.9964" gradientUnits="userSpaceOnUse">
<stop stop-color="#CDADEE"/>
<stop offset="1" stop-color="white" stop-opacity="0"/>
</linearGradient>
</defs>
</svg>
