<svg width="64" height="64" viewBox="0 0 64 64" fill="none" xmlns="http://www.w3.org/2000/svg">
<g clip-path="url(#clip0_45_2)">
<path d="M31.7 63.2125C49.2074 63.2125 63.4 49.2382 63.4 32.0001C63.4 14.7621 49.2074 0.787842 31.7 0.787842C14.1926 0.787842 0 14.7621 0 32.0001C0 49.2382 14.1926 63.2125 31.7 63.2125Z" fill="#FF8D00"/>
<path d="M23.1001 16.0494C24.2001 16.3447 25.3001 16.5417 26.4001 16.8371C27.5001 17.1324 28.6001 17.3294 29.7001 17.6247C30.0001 17.7232 30.1001 17.6247 30.2001 17.3294C30.6001 15.6555 31.0001 14.0801 31.4001 12.4063C31.5001 12.1109 31.6001 12.0124 31.9001 12.1109C32.9001 12.4063 33.8001 12.6032 34.8001 12.8001C35.1001 12.8986 35.1001 12.9971 35.0001 13.194C34.6001 14.7694 34.2001 16.4432 33.8001 18.0186C33.8001 18.1171 33.8001 18.2155 33.7001 18.4124C34.5001 18.6094 35.4001 18.8063 36.2001 19.0032C36.3001 19.0032 36.4001 18.8063 36.5001 18.7078C36.8001 17.4278 37.1001 16.2463 37.5001 14.9663L37.8001 13.7847C37.8001 13.5878 37.9001 13.4894 38.1001 13.5878C39.1001 13.8832 40.1001 14.0801 41.2001 14.3755C41.3001 14.3755 41.3001 14.474 41.4001 14.474C41.1001 15.754 40.8001 16.9355 40.5001 18.1171C40.4001 18.6094 40.3001 19.1017 40.1001 19.594C40.0001 19.8894 40.1001 19.9878 40.4001 20.0863L43.7001 21.5632C44.7001 22.154 45.6001 22.9417 46.3001 23.9263C47.2001 25.4032 47.3001 26.9786 46.9001 28.554C46.6001 29.6371 46.2001 30.6217 45.4001 31.4094C44.8001 32.0001 44.0001 32.394 43.2001 32.6894C43.1001 32.6894 43.0001 32.7878 42.8001 32.7878C43.2001 33.0832 43.6001 33.2801 44.0001 33.5755C45.2001 34.4617 46.0001 35.5447 46.4001 36.9232C46.6001 38.0063 46.5001 39.1878 46.2001 40.2709C45.8001 41.6494 45.3001 42.8309 44.4001 43.914C43.3001 45.194 41.9001 45.8832 40.3001 46.0801C38.2001 46.3755 36.2001 46.1786 34.2001 45.8832C33.9001 45.7847 33.7001 45.8832 33.6001 46.1786C33.2001 47.754 32.8001 49.4278 32.4001 51.0032C32.3001 51.3971 32.3001 51.4955 31.8001 51.2986C30.9001 51.1017 29.9001 50.8063 29.0001 50.6094C28.7001 50.5109 28.7001 50.4124 28.8001 50.2155C29.2001 48.5417 29.6001 46.8678 30.1001 45.2924C30.1001 45.0955 30.2001 44.9971 30.0001 44.8986C29.2001 44.7017 28.4001 44.5047 27.5001 44.3078C27.3001 45.194 27.0001 46.0801 26.8001 46.9663C26.6001 47.8524 26.3001 48.7386 26.1001 49.6247C26.0001 49.8217 26.0001 49.9201 25.7001 49.8217C24.7001 49.5263 23.7001 49.3294 22.7001 49.1324C22.4001 49.034 22.4001 48.9355 22.5001 48.7386C22.9001 47.0647 23.3001 45.3909 23.8001 43.8155C23.8001 43.7171 23.9001 43.6186 23.9001 43.4217C21.6001 42.8309 19.3001 42.2401 16.9001 41.6494C17.1001 41.2555 17.2001 40.9601 17.4001 40.5663C17.8001 39.6801 18.2001 38.794 18.5001 38.0063C18.6001 37.7109 18.7001 37.7109 19.0001 37.7109C19.7001 37.9078 20.5001 38.1047 21.2001 38.2032C22.0001 38.4001 22.6001 38.0063 22.7001 37.3171C24.0001 32.2955 25.3001 27.274 26.5001 22.154C26.7001 21.3663 26.2001 20.4801 25.3001 20.1847C24.4001 19.8894 23.5001 19.6924 22.7001 19.4955C22.5001 19.4955 22.4001 19.3971 22.5001 19.2001C22.8001 18.1171 23.1001 16.9355 23.4001 15.8524C23.0001 16.1478 23.0001 16.1478 23.1001 16.0494ZM28.2001 40.3694C28.3001 40.3694 28.4001 40.4678 28.4001 40.4678C30.0001 40.8617 31.7001 41.354 33.4001 41.4524C34.6001 41.5509 35.7001 41.5509 36.8001 41.1571C38.7001 40.5663 39.5001 38.1047 38.4001 36.5294C37.9001 35.7417 37.1001 35.2494 36.3001 34.7571C34.5001 33.7724 32.4001 33.3786 30.4001 32.9847C30.1001 32.8863 30.1001 32.9847 30.0001 33.2801C29.8001 34.2647 29.5001 35.1509 29.3001 36.1355C28.9001 37.514 28.6001 38.8924 28.2001 40.3694ZM36.6001 30.3263C36.8001 30.3263 37.3001 30.2278 37.7001 30.1294C39.6001 29.7355 40.6001 27.5694 39.6001 25.8955C39.1001 25.0094 38.2001 24.4186 37.3001 24.0247C35.9001 23.434 34.5001 23.1386 33.0001 22.7447C32.7001 22.6463 32.6001 22.7447 32.5001 23.0401C32.0001 25.1078 31.5001 27.0771 30.9001 29.1447C30.8001 29.3417 30.9001 29.4401 31.1001 29.5386C31.5001 29.6371 31.8001 29.7355 32.2001 29.834C33.7001 30.0309 35.0001 30.3263 36.6001 30.3263Z" fill="white"/>
</g>
<defs>
<clipPath id="clip0_45_2">
<rect width="64" height="64" fill="white"/>
</clipPath>
</defs>
</svg>
