<svg width="64" height="64" viewBox="0 0 64 64" fill="none" xmlns="http://www.w3.org/2000/svg">
<path d="M32 64C49.6731 64 64 49.6731 64 32C64 14.3269 49.6731 0 32 0C14.3269 0 0 14.3269 0 32C0 49.6731 14.3269 64 32 64Z" fill="#627EEA"/>
<path d="M33.0036 7.9967V25.7367L47.9976 32.4367L33.0036 7.9967Z" fill="white" fill-opacity="0.602"/>
<path d="M32.9995 7.9967L18.0035 32.4367L32.9995 25.7367V7.9967Z" fill="white"/>
<path d="M33.0036 43.9319V55.9859L48.0076 35.2279L33.0036 43.9319Z" fill="white" fill-opacity="0.602"/>
<path d="M32.9995 55.9859V43.9299L18.0035 35.2279L32.9995 55.9859Z" fill="white"/>
<path d="M33.0036 41.1455L47.9976 32.4395L33.0036 25.7435V41.1455Z" fill="white" fill-opacity="0.2"/>
<path d="M18.0035 32.4395L32.9995 41.1455V25.7435L18.0035 32.4395Z" fill="white" fill-opacity="0.602"/>
</svg>
